<?xml version="1.0" encoding="utf-8"?>
<!-- Generator: Adobe Illustrator 23.0.2, SVG Export Plug-In . SVG Version: 6.00 Build 0)  -->
<svg version="1.1" id="Calque_1" xmlns="http://www.w3.org/2000/svg" xmlns:xlink="http://www.w3.org/1999/xlink" x="0px" y="0px"
	 viewBox="0 0 200 200" style="enable-background:new 0 0 200 200;" xml:space="preserve">
<style type="text/css">
	.st0{opacity:0.15;fill:#2B2E33;}
	.st1{fill:#FFA400;}
	.st2{fill:#4891DC;}
	.st3{fill:#1C1C1C;}
	.st4{fill:none;}
	.st5{fill:#DEE2E5;}
	.st6{fill:#024B98;}
	.st7{fill:#3A3A3A;}
	.st8{fill:#C3C7CB;}
	.st9{fill:#ff0000;}
	.st10{fill:#FFFFFF;}
	.st11{fill:#F0F2F5;}
	.st12{fill:#004B98;}
	.st13{opacity:0.3;fill:#FFFFFF;}
	.st14{fill:#FE4A5D;}
	.st15{fill:none;stroke:#4891DC;stroke-width:1.5;stroke-linecap:round;stroke-miterlimit:10;}
	.st16{fill:none;stroke:#024B98;stroke-width:1.5;stroke-linecap:round;stroke-miterlimit:10;}
	.st17{fill:none;stroke:#4891DC;stroke-width:1.5;stroke-miterlimit:10;}
	.st18{fill:none;stroke:#024B98;stroke-width:1.5;stroke-miterlimit:10;}
	.st19{fill:#A8ADB1;}
	.st20{fill:#43474D;}
	.st21{fill:#00C18C;}
	.st22{fill:#0096AA;}
	.st23{fill:none;stroke:#FFFFFF;stroke-width:1.5;stroke-linecap:round;stroke-miterlimit:10;}
	.st24{fill:none;stroke:#A8ADB1;stroke-width:1.5;stroke-linecap:round;stroke-miterlimit:10;}
	.st25{fill:none;stroke:#A8ADB1;stroke-width:1.5;stroke-miterlimit:10;}
	.st26{fill:none;stroke:#FFFFFF;stroke-width:1.5;stroke-miterlimit:10;}
</style>
<g>
	<circle class="st10" cx="100.1" cy="100" r="56.1"/>
	<g>
		<path class="st1" d="M61.9,36.9l-0.5-0.2c-0.3-0.1-0.4-0.4-0.3-0.7l1.6-3.6c0.1-0.3,0.4-0.4,0.7-0.3l0.5,0.2
			c0.3,0.1,0.4,0.4,0.3,0.7l-1.6,3.6C62.5,36.9,62.2,37,61.9,36.9z"/>
		<path class="st1" d="M63.2,40.5L63.2,40.5c0.2-0.4,0.6-0.6,1-0.4l3.1,1.4c0.4,0.2,0.6,0.6,0.4,1v0c-0.2,0.4-0.6,0.6-1,0.4
			l-3.1-1.4C63.2,41.3,63,40.9,63.2,40.5z"/>
		<path class="st1" d="M59.2,41.8l0.5,0.2c0.3,0.1,0.4,0.4,0.3,0.7l-1.6,3.6c-0.1,0.3-0.4,0.4-0.7,0.3l-0.5-0.2
			c-0.3-0.1-0.4-0.4-0.3-0.7l1.6-3.6C58.6,41.8,59,41.7,59.2,41.8z"/>
		<path class="st1" d="M58.1,38l-0.2,0.5c-0.1,0.3-0.4,0.4-0.7,0.3l-3.6-1.6c-0.3-0.1-0.4-0.4-0.3-0.7l0.2-0.5
			c0.1-0.3,0.4-0.4,0.7-0.3l3.6,1.6C58.1,37.4,58.2,37.7,58.1,38z"/>
	</g>
	<g>
		<path class="st9" d="M152.4,94.3l-5.4-5.4l-5,5c-0.3,0.3-0.8,0.3-1.1,0c-0.3-0.3-0.3-0.8,0-1.1l6.1-6.1l5.4,5.4l5.4-5.4l5.3,5.3
			l5-5l5.7,5.7c0.3,0.3,0.3,0.8,0,1.1c-0.3,0.3-0.8,0.3-1.1,0l-4.6-4.6l-5,5l-5.3-5.3L152.4,94.3z"/>
	</g>
	<g>
		<g>
			<g>
				<path class="st6" d="M127.9,91.1h-8.6c-0.4,0-0.7-0.3-0.7-0.7c0-0.4,0.3-0.7,0.7-0.7h7.9v-7.1c0-4-3.4-7.2-7.6-7.2H79.8
					c-4.2,0-7.6,3.2-7.6,7.2v7.1h41.9c0.4,0,0.7,0.3,0.7,0.7c0,0.4-0.3,0.7-0.7,0.7H71.5c-0.4,0-0.7-0.3-0.7-0.7v-7.8
					c0-4.7,4-8.6,9-8.6h39.8c5,0,9,3.9,9,8.6v7.8C128.6,90.8,128.3,91.1,127.9,91.1z"/>
			</g>
			<g>
				<path class="st6" d="M71.5,96.8c-0.4,0-0.7-0.3-0.7-0.7v-5.7c0-0.4,0.3-0.7,0.7-0.7s0.7,0.3,0.7,0.7v5.7
					C72.2,96.5,71.9,96.8,71.5,96.8z"/>
			</g>
			<g>
				<path class="st6" d="M115,130.3H79.8c-5,0-9-3.9-9-8.6v-15.1c0-0.4,0.3-0.7,0.7-0.7s0.7,0.3,0.7,0.7v15.1c0,4,3.4,7.2,7.6,7.2
					H113"/>
				<path class="st6" d="M127.3,109V90.4c0-0.4,0.3-0.7,0.7-0.7c0.4,0,0.7,0.3,0.7,0.7V109"/>
			</g>
			<g>
				<path class="st6" d="M71.5,103.3c-0.4,0-0.7-0.3-0.7-0.7v-2.4c0-0.4,0.3-0.7,0.7-0.7s0.7,0.3,0.7,0.7v2.4
					C72.2,103,71.9,103.3,71.5,103.3z"/>
			</g>
			<g>
				<g>
					<path class="st6" d="M116,79.7c-0.7,0-1.3-0.5-1.3-1.2v-10c0-0.7,0.6-1.2,1.3-1.2c0.7,0,1.3,0.5,1.3,1.2v10
						C117.3,79.1,116.7,79.7,116,79.7z"/>
					<path class="st10" d="M116,67.8c0.4,0,0.8,0.3,0.8,0.7v10c0,0.4-0.4,0.7-0.8,0.7c-0.4,0-0.8-0.3-0.8-0.7v-10
						C115.2,68.1,115.5,67.8,116,67.8 M116,66.8c-1,0-1.8,0.8-1.8,1.7v10c0,0.9,0.8,1.7,1.8,1.7c1,0,1.8-0.8,1.8-1.7v-10
						C117.8,67.5,117,66.8,116,66.8L116,66.8z"/>
				</g>
			</g>
			<g>
				<g>
					<path class="st6" d="M83.7,79.7c-0.7,0-1.3-0.5-1.3-1.2v-10c0-0.7,0.6-1.2,1.3-1.2c0.7,0,1.3,0.5,1.3,1.2v10
						C85,79.1,84.4,79.7,83.7,79.7z"/>
					<path class="st10" d="M83.7,67.8c0.4,0,0.8,0.3,0.8,0.7v10c0,0.4-0.4,0.7-0.8,0.7c-0.4,0-0.8-0.3-0.8-0.7v-10
						C82.8,68.1,83.2,67.8,83.7,67.8 M83.7,66.8c-1,0-1.8,0.8-1.8,1.7v10c0,0.9,0.8,1.7,1.8,1.7c1,0,1.8-0.8,1.8-1.7v-10
						C85.5,67.5,84.7,66.8,83.7,66.8L83.7,66.8z"/>
				</g>
			</g>
			<g>
				<g>
					<path class="st2" d="M113.3,102.1h-0.9c-1.4,0-2.5-1.1-2.5-2.5v-0.9c0-1.4,1.1-2.5,2.5-2.5h0.9c1.4,0,2.5,1.1,2.5,2.5v0.9
						C115.8,101,114.6,102.1,113.3,102.1z M112.4,97.6c-0.6,0-1.1,0.5-1.1,1.1v0.9c0,0.6,0.5,1.1,1.1,1.1h0.9c0.6,0,1.1-0.5,1.1-1.1
						v-0.9c0-0.6-0.5-1.1-1.1-1.1H112.4z"/>
				</g>
			</g>
			<g>
				<g>
					<path class="st2" d="M100.1,102.1h-0.9c-1.4,0-2.5-1.1-2.5-2.5v-0.9c0-1.4,1.1-2.5,2.5-2.5h0.9c1.4,0,2.5,1.1,2.5,2.5v0.9
						C102.6,101,101.5,102.1,100.1,102.1z M99.2,97.6c-0.6,0-1.1,0.5-1.1,1.1v0.9c0,0.6,0.5,1.1,1.1,1.1h0.9c0.6,0,1.1-0.5,1.1-1.1
						v-0.9c0-0.6-0.5-1.1-1.1-1.1H99.2z"/>
				</g>
			</g>
			<g>
				<g>
					<path class="st2" d="M87,102.1h-0.9c-1.4,0-2.5-1.1-2.5-2.5v-0.9c0-1.4,1.1-2.5,2.5-2.5H87c1.4,0,2.5,1.1,2.5,2.5v0.9
						C89.4,101,88.3,102.1,87,102.1z M86.1,97.6c-0.6,0-1.1,0.5-1.1,1.1v0.9c0,0.6,0.5,1.1,1.1,1.1H87c0.6,0,1.1-0.5,1.1-1.1v-0.9
						c0-0.6-0.5-1.1-1.1-1.1H86.1z"/>
				</g>
			</g>
			<g>
				<g>
					<path class="st2" d="M100.1,113.1h-0.9c-1.4,0-2.5-1.1-2.5-2.5v-0.9c0-1.4,1.1-2.5,2.5-2.5h0.9c1.4,0,2.5,1.1,2.5,2.5v0.9
						C102.6,112,101.5,113.1,100.1,113.1z M99.2,108.6c-0.6,0-1.1,0.5-1.1,1.1v0.9c0,0.6,0.5,1.1,1.1,1.1h0.9c0.6,0,1.1-0.5,1.1-1.1
						v-0.9c0-0.6-0.5-1.1-1.1-1.1H99.2z"/>
				</g>
			</g>
			<g>
				<g>
					<path class="st2" d="M87,113.1h-0.9c-1.4,0-2.5-1.1-2.5-2.5v-0.9c0-1.4,1.1-2.5,2.5-2.5H87c1.4,0,2.5,1.1,2.5,2.5v0.9
						C89.4,112,88.3,113.1,87,113.1z M86.1,108.6c-0.6,0-1.1,0.5-1.1,1.1v0.9c0,0.6,0.5,1.1,1.1,1.1H87c0.6,0,1.1-0.5,1.1-1.1v-0.9
						c0-0.6-0.5-1.1-1.1-1.1H86.1z"/>
				</g>
			</g>
			<g>
				<g>
					<path class="st2" d="M100.1,124.1h-0.9c-1.4,0-2.5-1.1-2.5-2.5v-0.9c0-1.4,1.1-2.5,2.5-2.5h0.9c1.4,0,2.5,1.1,2.5,2.5v0.9
						C102.6,123,101.5,124.1,100.1,124.1z M99.2,119.6c-0.6,0-1.1,0.5-1.1,1.1v0.9c0,0.6,0.5,1.1,1.1,1.1h0.9c0.6,0,1.1-0.5,1.1-1.1
						v-0.9c0-0.6-0.5-1.1-1.1-1.1H99.2z"/>
				</g>
			</g>
			<g>
				<g>
					<path class="st2" d="M87,124.1h-0.9c-1.4,0-2.5-1.1-2.5-2.5v-0.9c0-1.4,1.1-2.5,2.5-2.5H87c1.4,0,2.5,1.1,2.5,2.5v0.9
						C89.4,123,88.3,124.1,87,124.1z M86.1,119.6c-0.6,0-1.1,0.5-1.1,1.1v0.9c0,0.6,0.5,1.1,1.1,1.1H87c0.6,0,1.1-0.5,1.1-1.1v-0.9
						c0-0.6-0.5-1.1-1.1-1.1H86.1z"/>
				</g>
			</g>
		</g>
		<g>
			<g>
				<path class="st6" d="M120.2,132.1c-7.6,0-13.7-6.2-13.7-13.7s6.2-13.7,13.7-13.7c7.6,0,13.7,6.2,13.7,13.7
					S127.8,132.1,120.2,132.1z M120.2,107.2c-6.1,0-11.1,5-11.1,11.1s5,11.1,11.1,11.1s11.1-5,11.1-11.1S126.4,107.2,120.2,107.2z"
					/>
				<path class="st10" d="M120.2,105.1c7.3,0,13.2,5.9,13.2,13.2c0,7.3-5.9,13.2-13.2,13.2c-7.3,0-13.2-5.9-13.2-13.2
					C107,111.1,112.9,105.1,120.2,105.1 M120.2,130c6.4,0,11.6-5.2,11.6-11.6c0-6.4-5.2-11.6-11.6-11.6c-6.4,0-11.6,5.2-11.6,11.6
					C108.6,124.7,113.8,130,120.2,130 M120.2,104.1c-7.8,0-14.2,6.4-14.2,14.2c0,7.8,6.4,14.2,14.2,14.2c7.8,0,14.2-6.4,14.2-14.2
					C134.5,110.5,128.1,104.1,120.2,104.1L120.2,104.1z M120.2,129c-5.9,0-10.6-4.8-10.6-10.6c0-5.9,4.8-10.6,10.6-10.6
					c5.9,0,10.6,4.8,10.6,10.6C130.8,124.2,126.1,129,120.2,129L120.2,129z"/>
			</g>
		</g>
		<g>
			<g>
				<g>
					<path class="st6" d="M120.2,121.9c-0.4,0-0.7-0.2-0.7-0.5v-9.8c0-0.3,0.3-0.5,0.7-0.5c0.4,0,0.7,0.2,0.7,0.5v9.8
						C121,121.7,120.6,121.9,120.2,121.9z"/>
				</g>
			</g>
			<g>
				<ellipse class="st6" cx="120.2" cy="124.6" rx="0.9" ry="0.9"/>
			</g>
		</g>
		<g>
			<g>
				<path class="st2" d="M135.5,124.9c-0.1,0-0.2,0-0.3-0.1c-0.3-0.2-0.5-0.6-0.3-0.9c1.9-3.9,1.6-8.6-0.7-12.2
					c-0.2-0.3-0.1-0.7,0.2-1c0.3-0.2,0.7-0.1,1,0.2c2.6,4.1,2.9,9.3,0.8,13.6C136,124.7,135.7,124.9,135.5,124.9z"/>
			</g>
		</g>
	</g>
</g>
</svg>
