<?xml version="1.0" encoding="utf-8"?>
<!-- Generator: Adobe Illustrator 23.0.2, SVG Export Plug-In . SVG Version: 6.00 Build 0)  -->
<svg version="1.1" id="Calque_1" xmlns="http://www.w3.org/2000/svg" xmlns:xlink="http://www.w3.org/1999/xlink" x="0px" y="0px"
	 viewBox="0 0 200 200" style="enable-background:new 0 0 200 200;" xml:space="preserve">
<style type="text/css">
	.st0{opacity:0.15;fill:#2B2E33;}
	.st1{fill:#FFA400;}
	.st2{fill:#4891DC;}
	.st3{fill:#1C1C1C;}
	.st4{fill:none;}
	.st5{fill:#DEE2E5;}
	.st6{fill:#024B98;}
	.st7{fill:#3A3A3A;}
	.st8{fill:#C3C7CB;}
	.st9{fill:#ff0000;}
	.st10{fill:#FFFFFF;}
	.st11{fill:#F0F2F5;}
	.st12{fill:#004B98;}
	.st13{opacity:0.3;fill:#FFFFFF;}
	.st14{fill:#FE4A5D;}
	.st15{fill:none;stroke:#4891DC;stroke-width:1.5;stroke-linecap:round;stroke-miterlimit:10;}
	.st16{fill:none;stroke:#024B98;stroke-width:1.5;stroke-linecap:round;stroke-miterlimit:10;}
	.st17{fill:none;stroke:#4891DC;stroke-width:1.5;stroke-miterlimit:10;}
	.st18{fill:none;stroke:#024B98;stroke-width:1.5;stroke-miterlimit:10;}
	.st19{fill:#A8ADB1;}
	.st20{fill:#43474D;}
	.st21{fill:#00C18C;}
	.st22{fill:#0096AA;}
	.st23{fill:none;stroke:#FFFFFF;stroke-width:1.5;stroke-linecap:round;stroke-miterlimit:10;}
	.st24{fill:none;stroke:#A8ADB1;stroke-width:1.5;stroke-linecap:round;stroke-miterlimit:10;}
	.st25{fill:none;stroke:#A8ADB1;stroke-width:1.5;stroke-miterlimit:10;}
	.st26{fill:none;stroke:#FFFFFF;stroke-width:1.5;stroke-miterlimit:10;}
</style>
<g>
	<circle class="st0" cx="100.1" cy="100" r="56.1"/>
	<g>
		<path class="st14" d="M52,41.4l-0.5-0.2c-0.3-0.1-0.4-0.4-0.3-0.7l1.6-3.6c0.1-0.3,0.4-0.4,0.7-0.3l0.5,0.2
			c0.3,0.1,0.4,0.4,0.3,0.7l-1.6,3.6C52.6,41.4,52.2,41.6,52,41.4z"/>
		<path class="st14" d="M53.2,45L53.2,45c0.2-0.4,0.6-0.6,1-0.4l3.1,1.4c0.4,0.2,0.6,0.6,0.4,1l0,0c-0.2,0.4-0.6,0.6-1,0.4l-3.1-1.4
			C53.2,45.9,53,45.4,53.2,45z"/>
		<path class="st14" d="M49.3,46.4l0.5,0.2c0.3,0.1,0.4,0.4,0.3,0.7l-1.6,3.6c-0.1,0.3-0.4,0.4-0.7,0.3L47.2,51
			c-0.3-0.1-0.4-0.4-0.3-0.7l1.6-3.6C48.7,46.4,49,46.3,49.3,46.4z"/>
		<path class="st14" d="M48.2,42.6L47.9,43c-0.1,0.3-0.4,0.4-0.7,0.3l-3.6-1.6c-0.3-0.1-0.4-0.4-0.3-0.7l0.2-0.5
			c0.1-0.3,0.4-0.4,0.7-0.3l3.6,1.6C48.1,42,48.3,42.3,48.2,42.6z"/>
	</g>
	<g>
		<path class="st2" d="M151.8,100.6l-5.4-5.4l-5,5c-0.3,0.3-0.8,0.3-1.1,0c-0.3-0.3-0.3-0.8,0-1.1l6.1-6.1l5.4,5.4l5.4-5.4l5.3,5.3
			l5-5l5.7,5.7c0.3,0.3,0.3,0.8,0,1.1c-0.3,0.3-0.8,0.3-1.1,0l-4.6-4.6l-5,5l-5.3-5.3L151.8,100.6z"/>
	</g>
	<path class="st25" d="M81.1,131.7H70.3c-0.7,0-1.2-0.5-1.2-1.2V120c0-0.7,0.5-1.2,1.2-1.2h10.7c0.7,0,1.2,0.5,1.2,1.2v10.4
		C82.3,131.1,81.7,131.7,81.1,131.7z"/>
	<path class="st24" d="M76.1,79.9h2.2h4h10c0.7,0,1.2,0.5,1.2,1.2v10.4c0,0.7-0.5,1.2-1.2,1.2h-22c-0.7,0-1.2-0.5-1.2-1.2V81.1
		c0-0.7,0.5-1.2,1.2-1.2h2.5"/>
	<path class="st26" d="M125.2,76.8h-22c-0.7,0-1.2-0.5-1.2-1.2V65.2c0-0.7,0.5-1.2,1.2-1.2h22c0.7,0,1.2,0.5,1.2,1.2v10.4
		C126.4,76.3,125.9,76.8,125.2,76.8z"/>
	<path class="st25" d="M105.6,105.8h-22c-0.7,0-1.2-0.5-1.2-1.2V94.1c0-0.7,0.5-1.2,1.2-1.2h22c0.7,0,1.2,0.5,1.2,1.2v10.4
		C106.8,105.2,106.3,105.8,105.6,105.8z"/>
	<path class="st25" d="M129.9,105.8h-22c-0.7,0-1.2-0.5-1.2-1.2V94.1c0-0.7,0.5-1.2,1.2-1.2h22c0.7,0,1.2,0.5,1.2,1.2v10.4
		C131.1,105.2,130.5,105.8,129.9,105.8z"/>
	<path class="st25" d="M92.3,118.6h-22c-0.7,0-1.2-0.5-1.2-1.2V107c0-0.7,0.5-1.2,1.2-1.2h22c0.7,0,1.2,0.5,1.2,1.2v10.4
		C93.5,118.1,93,118.6,92.3,118.6z"/>
	<path class="st25" d="M116.6,118.6h-22c-0.7,0-1.2-0.5-1.2-1.2V107c0-0.7,0.5-1.2,1.2-1.2h22c0.7,0,1.2,0.5,1.2,1.2v10.4
		C117.8,118.1,117.3,118.6,116.6,118.6z"/>
	<path class="st25" d="M105.6,131.7h-22c-0.7,0-1.2-0.5-1.2-1.2V120c0-0.7,0.5-1.2,1.2-1.2h22c0.7,0,1.2,0.5,1.2,1.2v10.4
		C106.8,131.1,106.3,131.7,105.6,131.7z"/>
	<path class="st24" d="M131.1,125.2v5.2c0,0.7-0.5,1.2-1.2,1.2h-22c-0.7,0-1.2-0.5-1.2-1.2V120c0-0.7,0.5-1.2,1.2-1.2h22
		c0.7,0,1.2,0.5,1.2,1.2v2"/>
	<line class="st23" x1="97.9" y1="102.8" x2="101.8" y2="102.8"/>
	<line class="st23" x1="110.3" y1="96.1" x2="114.2" y2="96.1"/>
	<line class="st23" x1="72.7" y1="109" x2="76.6" y2="109"/>
	<line class="st23" x1="109.9" y1="115.6" x2="113.8" y2="115.6"/>
	<line class="st23" x1="85.4" y1="121.8" x2="89.3" y2="121.8"/>
	<line class="st23" x1="123.2" y1="128.7" x2="127.1" y2="128.7"/>
	<line class="st23" x1="85.1" y1="89.8" x2="89" y2="89.8"/>
	<line class="st23" x1="118.4" y1="73.8" x2="122.2" y2="73.8"/>
	<line class="st23" x1="106" y1="84.2" x2="106" y2="80.8"/>
	<line class="st23" x1="114.3" y1="84.2" x2="114.3" y2="80.8"/>
	<line class="st23" x1="122.6" y1="84.2" x2="122.6" y2="80.8"/>
</g>
</svg>
