<?xml version="1.0" encoding="utf-8"?>
<!-- Generator: Adobe Illustrator 23.0.2, SVG Export Plug-In . SVG Version: 6.00 Build 0)  -->
<svg version="1.1" id="Calque_1" xmlns="http://www.w3.org/2000/svg" xmlns:xlink="http://www.w3.org/1999/xlink" x="0px" y="0px"
	 viewBox="0 0 200 200" style="enable-background:new 0 0 200 200;" xml:space="preserve">
<style type="text/css">
	.st0{opacity:0.15;fill:#2B2E33;}
	.st1{fill:#FFA400;}
	.st2{fill:#4891DC;}
	.st3{fill:#1C1C1C;}
	.st4{fill:none;}
	.st5{fill:#DEE2E5;}
	.st6{fill:#024B98;}
	.st7{fill:#3A3A3A;}
	.st8{fill:#C3C7CB;}
	.st9{fill:#ff0000;}
	.st10{fill:#FFFFFF;}
	.st11{fill:#F0F2F5;}
	.st12{fill:#004B98;}
	.st13{opacity:0.3;fill:#FFFFFF;}
	.st14{fill:#FE4A5D;}
	.st15{fill:none;stroke:#4891DC;stroke-width:1.5;stroke-linecap:round;stroke-miterlimit:10;}
	.st16{fill:none;stroke:#024B98;stroke-width:1.5;stroke-linecap:round;stroke-miterlimit:10;}
	.st17{fill:none;stroke:#4891DC;stroke-width:1.5;stroke-miterlimit:10;}
	.st18{fill:none;stroke:#024B98;stroke-width:1.5;stroke-miterlimit:10;}
	.st19{fill:#A8ADB1;}
	.st20{fill:#43474D;}
	.st21{fill:#00C18C;}
	.st22{fill:#0096AA;}
	.st23{fill:none;stroke:#FFFFFF;stroke-width:1.5;stroke-linecap:round;stroke-miterlimit:10;}
	.st24{fill:none;stroke:#A8ADB1;stroke-width:1.5;stroke-linecap:round;stroke-miterlimit:10;}
	.st25{fill:none;stroke:#A8ADB1;stroke-width:1.5;stroke-miterlimit:10;}
	.st26{fill:none;stroke:#FFFFFF;stroke-width:1.5;stroke-miterlimit:10;}
</style>
<g>
	<circle class="st10" cx="100" cy="100" r="56.1"/>
	<g>
		<path class="st1" d="M51.9,41.4l-0.5-0.2c-0.3-0.1-0.4-0.4-0.3-0.7l1.6-3.6c0.1-0.3,0.4-0.4,0.7-0.3l0.5,0.2
			c0.3,0.1,0.4,0.4,0.3,0.7l-1.6,3.6C52.5,41.4,52.2,41.6,51.9,41.4z"/>
		<path class="st1" d="M53.1,45L53.1,45c0.2-0.4,0.6-0.6,1-0.4l3.1,1.4c0.4,0.2,0.6,0.6,0.4,1l0,0c-0.2,0.4-0.6,0.6-1,0.4l-3.1-1.4
			C53.1,45.9,53,45.4,53.1,45z"/>
		<path class="st1" d="M49.2,46.4l0.5,0.2c0.3,0.1,0.4,0.4,0.3,0.7l-1.6,3.6c-0.1,0.3-0.4,0.4-0.7,0.3L47.2,51
			c-0.3-0.1-0.4-0.4-0.3-0.7l1.6-3.6C48.6,46.4,48.9,46.3,49.2,46.4z"/>
		<path class="st1" d="M48.1,42.6L47.9,43c-0.1,0.3-0.4,0.4-0.7,0.3l-3.6-1.6c-0.3-0.1-0.4-0.4-0.3-0.7l0.2-0.5
			c0.1-0.3,0.4-0.4,0.7-0.3l3.6,1.6C48.1,42,48.2,42.3,48.1,42.6z"/>
	</g>
	<g>
		<path class="st9" d="M151.7,100.6l-5.4-5.4l-5,5c-0.3,0.3-0.8,0.3-1.1,0c-0.3-0.3-0.3-0.8,0-1.1l6.1-6.1l5.4,5.4l5.4-5.4l5.3,5.3
			l5-5l5.7,5.7c0.3,0.3,0.3,0.8,0,1.1c-0.3,0.3-0.8,0.3-1.1,0l-4.6-4.6l-5,5l-5.3-5.3L151.7,100.6z"/>
	</g>
	<g>
		<path class="st16" d="M76,78.1h2.2h4h10c0.7,0,1.2,0.5,1.2,1.2v10.4c0,0.7-0.5,1.2-1.2,1.2h-22c-0.7,0-1.2-0.5-1.2-1.2V79.3
			c0-0.7,0.5-1.2,1.2-1.2h2.5"/>
		<path class="st17" d="M125.2,75h-22c-0.7,0-1.2-0.5-1.2-1.2V63.4c0-0.7,0.5-1.2,1.2-1.2h22c0.7,0,1.2,0.5,1.2,1.2v10.4
			C126.4,74.5,125.8,75,125.2,75z"/>
		<path class="st18" d="M105.5,104h-22c-0.7,0-1.2-0.5-1.2-1.2V92.4c0-0.7,0.5-1.2,1.2-1.2h22c0.7,0,1.2,0.5,1.2,1.2v10.4
			C106.7,103.4,106.2,104,105.5,104z"/>
		<path class="st18" d="M129.8,104h-22c-0.7,0-1.2-0.5-1.2-1.2V92.4c0-0.7,0.5-1.2,1.2-1.2h22c0.7,0,1.2,0.5,1.2,1.2v10.4
			C131,103.4,130.5,104,129.8,104z"/>
		<path class="st16" d="M69.1,109.4v-4.2c0-0.7,0.5-1.2,1.2-1.2h22c0.7,0,1.2,0.5,1.2,1.2v10.4c0,0.7-0.5,1.2-1.2,1.2h-22
			c-0.7,0-1.2-0.5-1.2-1.2v-2.9"/>
		<path class="st18" d="M116.5,116.8h-22c-0.7,0-1.2-0.5-1.2-1.2v-10.4c0-0.7,0.5-1.2,1.2-1.2h22c0.7,0,1.2,0.5,1.2,1.2v10.4
			C117.8,116.3,117.2,116.8,116.5,116.8z"/>
		<path class="st18" d="M105.5,129.9h-22c-0.7,0-1.2-0.5-1.2-1.2v-10.4c0-0.7,0.5-1.2,1.2-1.2h22c0.7,0,1.2,0.5,1.2,1.2v10.4
			C106.7,129.3,106.2,129.9,105.5,129.9z"/>
		<path class="st16" d="M131,123.4v5.2c0,0.7-0.5,1.2-1.2,1.2h-22c-0.7,0-1.2-0.5-1.2-1.2v-10.4c0-0.7,0.5-1.2,1.2-1.2h22
			c0.7,0,1.2,0.5,1.2,1.2v2"/>
		<line class="st15" x1="97.8" y1="101" x2="101.7" y2="101"/>
		<line class="st15" x1="110.2" y1="94.3" x2="114.1" y2="94.3"/>
		<path class="st18" d="M81,129.9H70.3c-0.7,0-1.2-0.5-1.2-1.2v-10.4c0-0.7,0.5-1.2,1.2-1.2H81c0.7,0,1.2,0.5,1.2,1.2v10.4
			C82.2,129.3,81.7,129.9,81,129.9z"/>
		<line class="st15" x1="72.6" y1="107.2" x2="76.5" y2="107.2"/>
		<line class="st15" x1="109.8" y1="113.8" x2="113.7" y2="113.8"/>
		<line class="st15" x1="85.3" y1="120" x2="89.2" y2="120"/>
		<line class="st15" x1="123.1" y1="126.9" x2="127" y2="126.9"/>
		<line class="st15" x1="85" y1="88" x2="88.9" y2="88"/>
		<line class="st15" x1="118.3" y1="72" x2="122.2" y2="72"/>
		<line class="st15" x1="105.8" y1="82.6" x2="105.8" y2="79.3"/>
		<line class="st15" x1="114.1" y1="82.6" x2="114.1" y2="79.3"/>
		<line class="st15" x1="122.4" y1="82.6" x2="122.4" y2="79.3"/>
	</g>
</g>
</svg>
