<?xml version="1.0" encoding="utf-8"?>
<!-- Generator: Adobe Illustrator 23.0.2, SVG Export Plug-In . SVG Version: 6.00 Build 0)  -->
<svg version="1.1" id="Calque_1" xmlns="http://www.w3.org/2000/svg" xmlns:xlink="http://www.w3.org/1999/xlink" x="0px" y="0px"
	 viewBox="0 0 200 200" style="enable-background:new 0 0 200 200;" xml:space="preserve">
<style type="text/css">
	.st0{opacity:0.15;fill:#2B2E33;}
	.st1{fill:#FFA400;}
	.st2{fill:#4891DC;}
	.st3{fill:#1C1C1C;}
	.st4{fill:none;}
	.st5{fill:#DEE2E5;}
	.st6{fill:#024B98;}
	.st7{fill:#3A3A3A;}
	.st8{fill:#C3C7CB;}
	.st9{fill:#ff0000;}
	.st10{fill:#FFFFFF;}
	.st11{fill:#F0F2F5;}
	.st12{fill:#004B98;}
	.st13{opacity:0.3;fill:#FFFFFF;}
	.st14{fill:#FE4A5D;}
	.st15{fill:none;stroke:#4891DC;stroke-width:1.5;stroke-linecap:round;stroke-miterlimit:10;}
	.st16{fill:none;stroke:#024B98;stroke-width:1.5;stroke-linecap:round;stroke-miterlimit:10;}
	.st17{fill:none;stroke:#4891DC;stroke-width:1.5;stroke-miterlimit:10;}
	.st18{fill:none;stroke:#024B98;stroke-width:1.5;stroke-miterlimit:10;}
	.st19{fill:#A8ADB1;}
	.st20{fill:#43474D;}
	.st21{fill:#00C18C;}
	.st22{fill:#0096AA;}
	.st23{fill:none;stroke:#FFFFFF;stroke-width:1.5;stroke-linecap:round;stroke-miterlimit:10;}
	.st24{fill:none;stroke:#A8ADB1;stroke-width:1.5;stroke-linecap:round;stroke-miterlimit:10;}
	.st25{fill:none;stroke:#A8ADB1;stroke-width:1.5;stroke-miterlimit:10;}
	.st26{fill:none;stroke:#FFFFFF;stroke-width:1.5;stroke-miterlimit:10;}
</style>
<g>
	<circle class="st10" cx="100" cy="100" r="56.1"/>
	<g>
		<path class="st1" d="M52,42.5l-0.5-0.2c-0.3-0.1-0.4-0.4-0.3-0.7l1.6-3.6c0.1-0.3,0.4-0.4,0.7-0.3l0.5,0.2
			c0.3,0.1,0.4,0.4,0.3,0.7l-1.6,3.6C52.5,42.4,52.2,42.6,52,42.5z"/>
		<path class="st1" d="M53.2,46L53.2,46c0.2-0.4,0.6-0.6,1-0.4l3.1,1.4c0.4,0.2,0.6,0.6,0.4,1l0,0c-0.2,0.4-0.6,0.6-1,0.4l-3.1-1.4
			C53.2,46.9,53,46.4,53.2,46z"/>
		<path class="st1" d="M49.2,47.4l0.5,0.2c0.3,0.1,0.4,0.4,0.3,0.7l-1.6,3.6c-0.1,0.3-0.4,0.4-0.7,0.3L47.2,52
			c-0.3-0.1-0.4-0.4-0.3-0.7l1.6-3.6C48.7,47.4,49,47.3,49.2,47.4z"/>
		<path class="st1" d="M48.1,43.6L47.9,44c-0.1,0.3-0.4,0.4-0.7,0.3l-3.6-1.6c-0.3-0.1-0.4-0.4-0.3-0.7l0.2-0.5
			c0.1-0.3,0.4-0.4,0.7-0.3l3.6,1.6C48.1,43,48.3,43.3,48.1,43.6z"/>
	</g>
	<g>
		<path class="st9" d="M145.5,131.2l-5.4-5.4l-5,5c-0.3,0.3-0.8,0.3-1.1,0c-0.3-0.3-0.3-0.8,0-1.1l6.1-6.1l5.4,5.4l5.4-5.4l5.3,5.3
			l5-5l5.7,5.7c0.3,0.3,0.3,0.8,0,1.1c-0.3,0.3-0.8,0.3-1.1,0l-4.6-4.6l-5,5l-5.3-5.3L145.5,131.2z"/>
	</g>
	<g>
		<path class="st6" d="M100.8,105.9l-1.5,0l0.3-36.4c0-0.3,0.1-0.5,0.4-0.6c0.2-0.1,0.5-0.1,0.7,0L131,86.4l-0.8,1.3L101,70.8
			L100.8,105.9z"/>
	</g>
	<g>
		<path class="st6" d="M99.8,126.7c-0.4,0-0.8-0.3-0.8-0.8v-3.2c0-0.4,0.3-0.8,0.8-0.8s0.8,0.3,0.8,0.8v3.2
			C100.5,126.4,100.2,126.7,99.8,126.7z"/>
	</g>
	<g>
		<path class="st6" d="M100.5,104.8v14.7c0,0.4-0.3,0.8-0.8,0.8S99,120,99,119.5v-15.1c0-0.3,0.2-0.5,0.4-0.7"/>
	</g>
	<g>
		<path class="st6" d="M99.8,140.3c-0.1,0-0.3,0-0.4-0.1c-0.2-0.1-0.5-0.4-0.5-0.7v-10.8c0-0.4,0.3-0.8,0.8-0.8s0.8,0.3,0.8,0.8
			l0.2,9.6l29.1-16.9v-20.6c0-0.4,0.3-0.8,0.8-0.8s0.8,0.3,0.8,0.8v21.1c0,0.3-0.1,0.5-0.4,0.6l-30.6,17.8
			C100,140.2,99.9,140.3,99.8,140.3z"/>
	</g>
	<g>
		<path class="st6" d="M100.5,104.9l-1.5,0l0.5-34.1l-30.2,16l-0.7-1.3l31.3-16.5c0.2-0.1,0.5-0.1,0.7,0c0.2,0.1,0.4,0.4,0.4,0.7
			L100.5,104.9z"/>
	</g>
	<g>
		<path class="st6" d="M74.3,126.7c-0.1,0-0.2,0-0.4-0.1l-5.1-2.7c-0.2-0.1-0.4-0.4-0.4-0.7l0.1-20.9c0-0.4,0.3-0.7,0.8-0.7
			c0,0,0,0,0,0c0.4,0,0.7,0.3,0.7,0.8L70,122.8l4.7,2.5c0.4,0.2,0.5,0.7,0.3,1C74.8,126.6,74.5,126.7,74.3,126.7z"/>
	</g>
	<g>
		<path class="st6" d="M100.1,103.7c0.2,0.1,0.4,0.4,0.4,0.7l0,14.9c0,0.4-0.3,0.7-0.8,0.7c0,0-0.1,0.1-0.1,0.1
			c-0.4,0-0.6-0.4-0.6-0.8l0-14.4"/>
	</g>
	<g>
		<path class="st6" d="M99.5,140.3c-0.1,0-0.2,0-0.4-0.1l-21-11.3c-0.4-0.2-0.5-0.7-0.3-1c0.2-0.4,0.7-0.5,1-0.3l19.9,10.7l0.1-9.3
			c0-0.4,0.3-0.7,0.8-0.7c0.4,0,0.7,0.3,0.7,0.8l-0.1,10.5c0,0.3-0.1,0.5-0.4,0.6C99.8,140.2,99.6,140.3,99.5,140.3z"/>
	</g>
	<g>
		<path class="st2" d="M132,75c-0.1,0-0.3,0-0.4-0.1l-2-1.2c-0.4-0.2-0.5-0.7-0.3-1s0.7-0.5,1-0.3l2,1.2c0.4,0.2,0.5,0.7,0.3,1
			C132.5,74.9,132.2,75,132,75z"/>
	</g>
	<g>
		<path class="st2" d="M106.7,140.4c-0.3,0-0.5-0.1-0.6-0.4c-0.2-0.4-0.1-0.8,0.3-1l4.6-2.7c0.4-0.2,0.8-0.1,1,0.3
			c0.2,0.4,0.1,0.8-0.3,1l-4.6,2.7C107,140.4,106.8,140.4,106.7,140.4z"/>
	</g>
	<g>
		<path class="st2" d="M130.6,87.8c-0.1,0-0.3,0-0.4-0.1L99.9,70.2c-0.2-0.1-0.3-0.3-0.4-0.5c0-0.2,0-0.5,0.2-0.6l8.7-8.9
			c0.2-0.2,0.6-0.3,0.9-0.1l16.5,9.8c0.4,0.2,0.5,0.7,0.3,1c-0.2,0.4-0.7,0.5-1,0.3l-16-9.5l-7.6,7.8l29,16.8l7.3-7.6l-2.8-1.7
			c-0.4-0.2-0.5-0.7-0.3-1c0.2-0.4,0.7-0.5,1-0.3l3.6,2.1c0.2,0.1,0.3,0.3,0.4,0.5c0,0.2,0,0.5-0.2,0.6l-8.4,8.7
			C131,87.7,130.8,87.8,130.6,87.8z"/>
	</g>
	<g>
		<path class="st2" d="M104.4,115.8c-0.1,0-0.2,0-0.2,0c-0.2-0.1-0.4-0.2-0.4-0.4l-4.6-10.7c-0.2-0.4,0-0.8,0.3-0.9l30.8-17.3
			c0.3-0.2,0.7-0.1,1,0.2l6.9,9.4c0.1,0.2,0.2,0.4,0.1,0.6c0,0.2-0.2,0.4-0.4,0.5l-33.1,18.6C104.6,115.8,104.5,115.8,104.4,115.8z
			 M100.7,104.7l4,9.3l31.6-17.8l-6-8.2L100.7,104.7z"/>
	</g>
	<g>
		<path class="st2" d="M93.7,116.6c-0.1,0-0.3,0-0.4-0.1L60.7,98.2c-0.2-0.1-0.3-0.3-0.4-0.5c0-0.2,0-0.4,0.1-0.6l7.9-11.5
			c0.2-0.3,0.7-0.4,1-0.2l30.8,18.3c0.3,0.2,0.5,0.6,0.3,1l-6.1,11.5c-0.1,0.2-0.3,0.3-0.5,0.4C93.8,116.6,93.7,116.6,93.7,116.6z
			 M62.2,97.3l31.2,17.6l5.4-10.1L69.2,87.1L62.2,97.3z"/>
	</g>
	<g>
		<path class="st2" d="M69,86.8c-0.2,0-0.4-0.1-0.6-0.3l-7.9-9.4c-0.1-0.2-0.2-0.4-0.2-0.6c0-0.2,0.2-0.4,0.4-0.5l6.9-3.5
			c0.4-0.2,0.8,0,1,0.3c0.2,0.4,0,0.8-0.3,1l-6.1,3.1l6.9,8.2l30-15.9l-6-8l-19.7,9.9c-0.4,0.2-0.8,0-1-0.3c-0.2-0.4,0-0.8,0.3-1
			l20.2-10.2c0.3-0.2,0.7-0.1,0.9,0.2l6.9,9.2c0.1,0.2,0.2,0.4,0.1,0.6c0,0.2-0.2,0.4-0.4,0.5L69.3,86.7
			C69.2,86.8,69.1,86.8,69,86.8z"/>
	</g>
</g>
</svg>
