<?xml version="1.0" encoding="utf-8"?>
<!-- Generator: Adobe Illustrator 23.0.2, SVG Export Plug-In . SVG Version: 6.00 Build 0)  -->
<svg version="1.1" id="Calque_1" xmlns="http://www.w3.org/2000/svg" xmlns:xlink="http://www.w3.org/1999/xlink" x="0px" y="0px"
	 viewBox="0 0 200 200" style="enable-background:new 0 0 200 200;" xml:space="preserve">
<style type="text/css">
	.st0{opacity:0.15;fill:#2B2E33;}
	.st1{fill:#FFA400;}
	.st2{fill:#4891DC;}
	.st3{fill:#1C1C1C;}
	.st4{fill:none;}
	.st5{fill:#DEE2E5;}
	.st6{fill:#024B98;}
	.st7{fill:#3A3A3A;}
	.st8{fill:#C3C7CB;}
	.st9{fill:#ff0000;}
	.st10{fill:#FFFFFF;}
	.st11{fill:#F0F2F5;}
	.st12{fill:#004B98;}
	.st13{opacity:0.3;fill:#FFFFFF;}
	.st14{fill:#FE4A5D;}
	.st15{fill:none;stroke:#4891DC;stroke-width:1.5;stroke-linecap:round;stroke-miterlimit:10;}
	.st16{fill:none;stroke:#024B98;stroke-width:1.5;stroke-linecap:round;stroke-miterlimit:10;}
	.st17{fill:none;stroke:#4891DC;stroke-width:1.5;stroke-miterlimit:10;}
	.st18{fill:none;stroke:#024B98;stroke-width:1.5;stroke-miterlimit:10;}
	.st19{fill:#A8ADB1;}
	.st20{fill:#43474D;}
	.st21{fill:#00C18C;}
	.st22{fill:#0096AA;}
	.st23{fill:none;stroke:#FFFFFF;stroke-width:1.5;stroke-linecap:round;stroke-miterlimit:10;}
	.st24{fill:none;stroke:#A8ADB1;stroke-width:1.5;stroke-linecap:round;stroke-miterlimit:10;}
	.st25{fill:none;stroke:#A8ADB1;stroke-width:1.5;stroke-miterlimit:10;}
	.st26{fill:none;stroke:#FFFFFF;stroke-width:1.5;stroke-miterlimit:10;}
</style>
<g>
	<circle class="st0" cx="100.1" cy="100.1" r="56.1"/>
	<g>
		<path class="st1" d="M52,42.6l-0.5-0.2c-0.3-0.1-0.4-0.4-0.3-0.7l1.6-3.6c0.1-0.3,0.4-0.4,0.7-0.3L54,38c0.3,0.1,0.4,0.4,0.3,0.7
			l-1.6,3.6C52.6,42.6,52.3,42.7,52,42.6z"/>
		<path class="st1" d="M53.2,46.2L53.2,46.2c0.2-0.4,0.6-0.6,1-0.4l3.1,1.4c0.4,0.2,0.6,0.6,0.4,1v0c-0.2,0.4-0.6,0.6-1,0.4
			l-3.1-1.4C53.2,47,53,46.6,53.2,46.2z"/>
		<path class="st1" d="M49.3,47.5l0.5,0.2c0.3,0.1,0.4,0.4,0.3,0.7L48.4,52c-0.1,0.3-0.4,0.4-0.7,0.3l-0.5-0.2
			C47,52,46.9,51.7,47,51.4l1.6-3.6C48.7,47.5,49,47.4,49.3,47.5z"/>
		<path class="st1" d="M48.2,43.7L48,44.1c-0.1,0.3-0.4,0.4-0.7,0.3l-3.6-1.6c-0.3-0.1-0.4-0.4-0.3-0.7l0.2-0.5
			c0.1-0.3,0.4-0.4,0.7-0.3l3.6,1.6C48.2,43.1,48.3,43.4,48.2,43.7z"/>
	</g>
	<g>
		<path class="st2" d="M145.5,131.3l-5.4-5.4l-5,5c-0.3,0.3-0.8,0.3-1.1,0c-0.3-0.3-0.3-0.8,0-1.1l6.1-6.1l5.4,5.4l5.4-5.4l5.3,5.3
			l5-5l5.7,5.8c0.3,0.3,0.3,0.8,0,1.1c-0.3,0.3-0.8,0.3-1.1,0l-4.6-4.6l-5,5l-5.3-5.3L145.5,131.3z"/>
	</g>
	<g>
		<path class="st19" d="M100.8,106l-1.5,0l0.3-36.4c0-0.3,0.1-0.5,0.4-0.6c0.2-0.1,0.5-0.1,0.7,0L131,86.5l-0.8,1.3L101,70.9
			L100.8,106z"/>
	</g>
	<g>
		<path class="st19" d="M99.8,126.9c-0.4,0-0.8-0.3-0.8-0.8v-3.2c0-0.4,0.3-0.8,0.8-0.8s0.8,0.3,0.8,0.8v3.2
			C100.5,126.5,100.2,126.9,99.8,126.9z"/>
	</g>
	<g>
		<path class="st19" d="M100.5,104.9v14.7c0,0.4-0.3,0.8-0.8,0.8s-0.8-0.3-0.8-0.8v-15.1c0-0.3,0.2-0.5,0.4-0.7"/>
	</g>
	<g>
		<path class="st19" d="M99.8,140.4c-0.1,0-0.3,0-0.4-0.1c-0.2-0.1-0.5-0.4-0.5-0.7v-10.8c0-0.4,0.3-0.8,0.8-0.8s0.8,0.3,0.8,0.8
			l0.2,9.6l29.1-16.9v-20.6c0-0.4,0.3-0.8,0.8-0.8s0.8,0.3,0.8,0.8v21.1c0,0.3-0.1,0.5-0.4,0.6l-30.6,17.8
			C100.1,140.4,99.9,140.4,99.8,140.4z"/>
	</g>
	<g>
		<path class="st19" d="M100.5,105l-1.5,0l0.5-34.1l-30.2,16l-0.7-1.3L100,69c0.2-0.1,0.5-0.1,0.7,0c0.2,0.1,0.4,0.4,0.4,0.7
			L100.5,105z"/>
	</g>
	<g>
		<path class="st19" d="M74.3,126.8c-0.1,0-0.2,0-0.4-0.1l-5.1-2.7c-0.2-0.1-0.4-0.4-0.4-0.7l0.1-20.9c0-0.4,0.3-0.7,0.8-0.7
			c0,0,0,0,0,0c0.4,0,0.7,0.3,0.7,0.8L70,122.9l4.7,2.5c0.4,0.2,0.5,0.7,0.3,1C74.8,126.7,74.6,126.8,74.3,126.8z"/>
	</g>
	<g>
		<path class="st19" d="M100.2,103.9c0.2,0.1,0.4,0.4,0.4,0.7l0,14.9c0,0.4-0.3,0.7-0.8,0.7c0,0-0.1,0.1-0.1,0.1
			c-0.4,0-0.6-0.4-0.6-0.8l0-14.4"/>
	</g>
	<g>
		<path class="st19" d="M99.5,140.4c-0.1,0-0.2,0-0.4-0.1l-21-11.3c-0.4-0.2-0.5-0.7-0.3-1c0.2-0.4,0.7-0.5,1-0.3l19.9,10.7l0.1-9.3
			c0-0.4,0.3-0.7,0.8-0.7c0.4,0,0.7,0.3,0.7,0.8l-0.1,10.5c0,0.3-0.1,0.5-0.4,0.6C99.8,140.3,99.7,140.4,99.5,140.4z"/>
	</g>
	<g>
		<path class="st10" d="M104.4,115.9c-0.1,0-0.2,0-0.2,0c-0.2-0.1-0.4-0.2-0.4-0.4l-4.6-10.7c-0.2-0.4,0-0.8,0.3-0.9l30.8-17.3
			c0.3-0.2,0.7-0.1,1,0.2l6.9,9.4c0.1,0.2,0.2,0.4,0.1,0.6c0,0.2-0.2,0.4-0.4,0.5l-33.1,18.6C104.6,115.9,104.5,115.9,104.4,115.9z
			 M100.8,104.8l4,9.3l31.6-17.8l-6-8.2L100.8,104.8z"/>
	</g>
	<g>
		<path class="st10" d="M93.7,116.7c-0.1,0-0.3,0-0.4-0.1L60.7,98.3c-0.2-0.1-0.3-0.3-0.4-0.5c0-0.2,0-0.4,0.1-0.6l7.9-11.5
			c0.2-0.3,0.7-0.4,1-0.2l30.8,18.3c0.3,0.2,0.5,0.6,0.3,1l-6.1,11.5c-0.1,0.2-0.3,0.3-0.5,0.4C93.8,116.7,93.8,116.7,93.7,116.7z
			 M62.2,97.4l31.2,17.6l5.4-10.1L69.2,87.2L62.2,97.4z"/>
	</g>
	<g>
		<path class="st10" d="M132,75.1c-0.1,0-0.3,0-0.4-0.1l-2-1.2c-0.4-0.2-0.5-0.7-0.3-1s0.7-0.5,1-0.3l2,1.2c0.4,0.2,0.5,0.7,0.3,1
			C132.5,75,132.2,75.1,132,75.1z"/>
	</g>
	<g>
		<path class="st10" d="M69,86.9c-0.2,0-0.4-0.1-0.6-0.3l-7.9-9.4c-0.1-0.2-0.2-0.4-0.2-0.6c0-0.2,0.2-0.4,0.4-0.5l6.9-3.5
			c0.4-0.2,0.8,0,1,0.3c0.2,0.4,0,0.8-0.3,1L62.3,77l6.9,8.2l30-15.9l-6-8l-19.7,9.9c-0.4,0.2-0.8,0-1-0.3c-0.2-0.4,0-0.8,0.3-1
			l20.2-10.2c0.3-0.2,0.7-0.1,0.9,0.2l6.9,9.2c0.1,0.2,0.2,0.4,0.1,0.6c0,0.2-0.2,0.4-0.4,0.5L69.3,86.8
			C69.2,86.9,69.1,86.9,69,86.9z"/>
	</g>
	<g>
		<path class="st10" d="M106.7,140.5c-0.3,0-0.5-0.1-0.6-0.4c-0.2-0.4-0.1-0.8,0.3-1l4.6-2.7c0.4-0.2,0.8-0.1,1,0.3
			c0.2,0.4,0.1,0.8-0.3,1l-4.6,2.7C107,140.5,106.9,140.5,106.7,140.5z"/>
	</g>
	<g>
		<path class="st10" d="M130.6,87.9c-0.1,0-0.3,0-0.4-0.1L99.9,70.3c-0.2-0.1-0.3-0.3-0.4-0.5c0-0.2,0-0.5,0.2-0.6l8.7-8.9
			c0.2-0.2,0.6-0.3,0.9-0.1l16.5,9.8c0.4,0.2,0.5,0.7,0.3,1c-0.2,0.4-0.7,0.5-1,0.3l-16-9.5l-7.6,7.8l29,16.8l7.3-7.6L135,77
			c-0.4-0.2-0.5-0.7-0.3-1c0.2-0.4,0.7-0.5,1-0.3l3.6,2.1c0.2,0.1,0.3,0.3,0.4,0.5c0,0.2,0,0.5-0.2,0.6l-8.4,8.7
			C131,87.9,130.8,87.9,130.6,87.9z"/>
	</g>
</g>
</svg>
