<?xml version="1.0" encoding="utf-8"?>
<!-- Generator: Adobe Illustrator 23.0.2, SVG Export Plug-In . SVG Version: 6.00 Build 0)  -->
<svg version="1.1" id="Calque_1" xmlns="http://www.w3.org/2000/svg" xmlns:xlink="http://www.w3.org/1999/xlink" x="0px" y="0px"
	 viewBox="0 0 200 200" style="enable-background:new 0 0 200 200;" xml:space="preserve">
<style type="text/css">
	.st0{opacity:0.15;fill:#2B2E33;}
	.st1{fill:#FFA400;}
	.st2{fill:#4891DC;}
	.st3{fill:#1C1C1C;}
	.st4{fill:none;}
	.st5{fill:#DEE2E5;}
	.st6{fill:#024B98;}
	.st7{fill:#3A3A3A;}
	.st8{fill:#C3C7CB;}
	.st9{fill:#ff0000;}
	.st10{fill:#FFFFFF;}
	.st11{fill:#F0F2F5;}
	.st12{fill:#004B98;}
	.st13{opacity:0.3;fill:#FFFFFF;}
	.st14{fill:#FE4A5D;}
	.st15{fill:none;stroke:#4891DC;stroke-width:1.5;stroke-linecap:round;stroke-miterlimit:10;}
	.st16{fill:none;stroke:#024B98;stroke-width:1.5;stroke-linecap:round;stroke-miterlimit:10;}
	.st17{fill:none;stroke:#4891DC;stroke-width:1.5;stroke-miterlimit:10;}
	.st18{fill:none;stroke:#024B98;stroke-width:1.5;stroke-miterlimit:10;}
	.st19{fill:#A8ADB1;}
	.st20{fill:#43474D;}
	.st21{fill:#00C18C;}
	.st22{fill:#0096AA;}
	.st23{fill:none;stroke:#FFFFFF;stroke-width:1.5;stroke-linecap:round;stroke-miterlimit:10;}
	.st24{fill:none;stroke:#A8ADB1;stroke-width:1.5;stroke-linecap:round;stroke-miterlimit:10;}
	.st25{fill:none;stroke:#A8ADB1;stroke-width:1.5;stroke-miterlimit:10;}
	.st26{fill:none;stroke:#FFFFFF;stroke-width:1.5;stroke-miterlimit:10;}
</style>
<g>
	<circle class="st11" cx="100" cy="100" r="56.1"/>
	<g>
		<path class="st1" d="M50.5,40.1L50,39.9c-0.3-0.1-0.4-0.4-0.3-0.7l1.6-3.6c0.1-0.3,0.4-0.4,0.7-0.3l0.5,0.2
			c0.3,0.1,0.4,0.4,0.3,0.7l-1.6,3.6C51.1,40.1,50.7,40.2,50.5,40.1z"/>
		<path class="st1" d="M51.7,43.7L51.7,43.7c0.2-0.4,0.6-0.6,1-0.4l3.1,1.4c0.4,0.2,0.6,0.6,0.4,1l0,0c-0.2,0.4-0.6,0.6-1,0.4
			l-3.1-1.4C51.7,44.6,51.5,44.1,51.7,43.7z"/>
		<path class="st1" d="M47.7,45l0.5,0.2c0.3,0.1,0.4,0.4,0.3,0.7l-1.6,3.6c-0.1,0.3-0.4,0.4-0.7,0.3l-0.5-0.2
			c-0.3-0.1-0.4-0.4-0.3-0.7l1.6-3.6C47.2,45.1,47.5,44.9,47.7,45z"/>
		<path class="st1" d="M46.6,41.2l-0.2,0.5C46.3,42,46,42.1,45.7,42l-3.6-1.6c-0.3-0.1-0.4-0.4-0.3-0.7l0.2-0.5
			c0.1-0.3,0.4-0.4,0.7-0.3l3.6,1.6C46.6,40.6,46.8,40.9,46.6,41.2z"/>
	</g>
	<g>
		<path class="st9" d="M158.3,105l-5.4-5.4l-5,5c-0.3,0.3-0.8,0.3-1.1,0c-0.3-0.3-0.3-0.8,0-1.1l6.1-6.1l5.4,5.4l5.4-5.4l5.3,5.3
			l5-5l5.7,5.7c0.3,0.3,0.3,0.8,0,1.1c-0.3,0.3-0.8,0.3-1.1,0l-4.6-4.6l-5,5l-5.3-5.3L158.3,105z"/>
	</g>
	<g>
		<g>
			<path class="st12" d="M136.9,120.2h-1.3v-41c0-3.8-3.1-6.9-6.9-6.9H72.1c-3.8,0-6.9,3.1-6.9,6.9v41h-1.3v-41
				c0-4.5,3.7-8.2,8.2-8.2h56.5c4.5,0,8.2,3.7,8.2,8.2V120.2z"/>
		</g>
		<g>
			<path class="st2" d="M69,120.9c-0.4,0-0.7-0.3-0.7-0.7V80.7c0-3.1,2.5-5.6,5.6-5.6h38.6c0.4,0,0.7,0.3,0.7,0.7s-0.3,0.7-0.7,0.7
				H74c-2.4,0-4.3,1.9-4.3,4.3v39.6C69.7,120.6,69.4,120.9,69,120.9z"/>
		</g>
		<g>
			<path class="st2" d="M119.7,76.3h-2.2c-0.4,0-0.7-0.3-0.7-0.7s0.3-0.7,0.7-0.7h2.2c0.4,0,0.7,0.3,0.7,0.7S120.1,76.3,119.7,76.3z
				"/>
		</g>
		<g>
			<path class="st2" d="M131.8,120.9c-0.4,0-0.7-0.3-0.7-0.7V80.7c0-2.4-1.9-4.3-4.3-4.3h-3c-0.4,0-0.7-0.3-0.7-0.7s0.3-0.7,0.7-0.7
				h3c3.1,0,5.6,2.5,5.6,5.6v39.6C132.4,120.6,132.1,120.9,131.8,120.9z"/>
		</g>
		<g>
			<path class="st12" d="M136,128.3H64.8c-3,0-5.5-2.5-5.5-5.5v-2.5c0-0.4,0.3-0.7,0.7-0.7h80.9c0.4,0,0.7,0.3,0.7,0.7v2.5
				C141.5,125.8,139,128.3,136,128.3z M60.6,121v1.8c0,2.3,1.9,4.2,4.2,4.2H136c2.3,0,4.2-1.9,4.2-4.2V121H60.6z"/>
		</g>
		<g>
			<path class="st12" d="M105.7,123.5H95.1c-1.4,0-2.5-1.1-2.5-2.5v-0.1c0-0.3,0.2-0.5,0.5-0.5h14.5c0.3,0,0.5,0.2,0.5,0.5
				C108.1,122.3,107,123.5,105.7,123.5z M93.7,121.4c0.2,0.6,0.7,1.1,1.4,1.1h10.6c0.6,0,1.2-0.5,1.4-1.1H93.7z"/>
		</g>
		<g>
			<path class="st12" d="M108.1,101.6H92.7c-0.9,0-1.8-0.5-2.3-1.3c-0.5-0.8-0.5-1.8,0-2.6l2.2-3.8c0.2-0.3,0.6-0.4,0.9-0.2
				c0.3,0.2,0.4,0.6,0.2,0.9l-2.2,3.8c-0.2,0.4-0.2,0.9,0,1.3s0.7,0.7,1.1,0.7h15.5c0.5,0,0.9-0.2,1.1-0.7s0.2-0.9,0-1.3l-7.7-13.4
				c-0.2-0.4-0.7-0.7-1.1-0.7l0,0c-0.5,0-0.9,0.2-1.1,0.7l-4,6.9c-0.2,0.3-0.6,0.4-0.9,0.2c-0.3-0.2-0.4-0.6-0.2-0.9l4-6.9
				c0.5-0.8,1.3-1.3,2.3-1.3c0,0,0,0,0,0c0.9,0,1.8,0.5,2.3,1.3l7.7,13.4c0.5,0.8,0.5,1.8,0,2.6
				C109.9,101.1,109.1,101.6,108.1,101.6z"/>
		</g>
		<g>
			<path class="st12" d="M100.4,96.1c-0.4,0-0.7-0.3-0.7-0.7v-7.7c0-0.4,0.3-0.7,0.7-0.7s0.7,0.3,0.7,0.7v7.7
				C101,95.8,100.8,96.1,100.4,96.1z"/>
		</g>
		<g>
			<circle class="st12" cx="100.4" cy="98" r="0.8"/>
		</g>
		<g>
			<g>
				<path class="st2" d="M101.8,108.5H89.9c-0.4,0-0.7-0.3-0.7-0.7s0.3-0.7,0.7-0.7h11.9c0.4,0,0.7,0.3,0.7,0.7
					S102.1,108.5,101.8,108.5z"/>
			</g>
			<g>
				<path class="st2" d="M110.9,108.5h-4.6c-0.4,0-0.7-0.3-0.7-0.7s0.3-0.7,0.7-0.7h4.6c0.4,0,0.7,0.3,0.7,0.7
					S111.2,108.5,110.9,108.5z"/>
			</g>
		</g>
		<g>
			<g>
				<path class="st2" d="M115.4,112.9H97.5c-0.4,0-0.7-0.3-0.7-0.7s0.3-0.7,0.7-0.7h17.9c0.4,0,0.7,0.3,0.7,0.7
					S115.7,112.9,115.4,112.9z"/>
			</g>
			<g>
				<path class="st2" d="M93.1,112.9h-7.6c-0.4,0-0.7-0.3-0.7-0.7s0.3-0.7,0.7-0.7h7.6c0.4,0,0.7,0.3,0.7,0.7S93.4,112.9,93.1,112.9
					z"/>
			</g>
		</g>
		<g>
			<path class="st2" d="M60.7,110.3c-0.4,0-0.7-0.3-0.7-0.7v-7.4c0-0.4,0.3-0.7,0.7-0.7s0.7,0.3,0.7,0.7v7.4
				C61.4,110,61.1,110.3,60.7,110.3z"/>
		</g>
	</g>
</g>
</svg>
