<?xml version="1.0" encoding="utf-8"?>
<!-- Generator: Adobe Illustrator 23.0.2, SVG Export Plug-In . SVG Version: 6.00 Build 0)  -->
<svg version="1.1" id="Calque_1" xmlns="http://www.w3.org/2000/svg" xmlns:xlink="http://www.w3.org/1999/xlink" x="0px" y="0px"
	 viewBox="0 0 200 200" style="enable-background:new 0 0 200 200;" xml:space="preserve">
<style type="text/css">
	.st0{opacity:0.15;fill:#2B2E33;}
	.st1{fill:#FFA400;}
	.st2{fill:#4891DC;}
	.st3{fill:#1C1C1C;}
	.st4{fill:none;}
	.st5{fill:#DEE2E5;}
	.st6{fill:#024B98;}
	.st7{fill:#3A3A3A;}
	.st8{fill:#C3C7CB;}
	.st9{fill:#ff0000;}
	.st10{fill:#FFFFFF;}
	.st11{fill:#F0F2F5;}
	.st12{fill:#004B98;}
	.st13{opacity:0.3;fill:#FFFFFF;}
	.st14{fill:#FE4A5D;}
	.st15{fill:none;stroke:#4891DC;stroke-width:1.5;stroke-linecap:round;stroke-miterlimit:10;}
	.st16{fill:none;stroke:#024B98;stroke-width:1.5;stroke-linecap:round;stroke-miterlimit:10;}
	.st17{fill:none;stroke:#4891DC;stroke-width:1.5;stroke-miterlimit:10;}
	.st18{fill:none;stroke:#024B98;stroke-width:1.5;stroke-miterlimit:10;}
	.st19{fill:#A8ADB1;}
	.st20{fill:#43474D;}
	.st21{fill:#00C18C;}
	.st22{fill:#0096AA;}
	.st23{fill:none;stroke:#FFFFFF;stroke-width:1.5;stroke-linecap:round;stroke-miterlimit:10;}
	.st24{fill:none;stroke:#A8ADB1;stroke-width:1.5;stroke-linecap:round;stroke-miterlimit:10;}
	.st25{fill:none;stroke:#A8ADB1;stroke-width:1.5;stroke-miterlimit:10;}
	.st26{fill:none;stroke:#FFFFFF;stroke-width:1.5;stroke-miterlimit:10;}
</style>
<g>
	<circle class="st0" cx="100" cy="100" r="56.1"/>
	<g>
		<g>
			<path class="st19" d="M136.5,120.2h-1.3v-41c0-3.8-3.1-6.9-6.9-6.9H71.7c-3.8,0-6.9,3.1-6.9,6.9v41h-1.3v-41
				c0-4.5,3.7-8.2,8.2-8.2h56.5c4.5,0,8.2,3.7,8.2,8.2V120.2z"/>
		</g>
		<g>
			<path class="st10" d="M68.6,120.9c-0.4,0-0.7-0.3-0.7-0.7V80.7c0-3.1,2.5-5.6,5.6-5.6h38.6c0.4,0,0.7,0.3,0.7,0.7
				s-0.3,0.7-0.7,0.7H73.6c-2.4,0-4.3,1.9-4.3,4.3v39.6C69.3,120.6,69,120.9,68.6,120.9z"/>
		</g>
		<g>
			<path class="st10" d="M119.3,76.3h-2.2c-0.4,0-0.7-0.3-0.7-0.7s0.3-0.7,0.7-0.7h2.2c0.4,0,0.7,0.3,0.7,0.7S119.7,76.3,119.3,76.3
				z"/>
		</g>
		<g>
			<path class="st10" d="M131.4,120.9c-0.4,0-0.7-0.3-0.7-0.7V80.7c0-2.4-1.9-4.3-4.3-4.3h-3c-0.4,0-0.7-0.3-0.7-0.7
				s0.3-0.7,0.7-0.7h3c3.1,0,5.6,2.5,5.6,5.6v39.6C132,120.6,131.7,120.9,131.4,120.9z"/>
		</g>
		<g>
			<path class="st19" d="M135.6,128.3H64.4c-3,0-5.5-2.5-5.5-5.5v-2.5c0-0.4,0.3-0.7,0.7-0.7h80.9c0.4,0,0.7,0.3,0.7,0.7v2.5
				C141.1,125.8,138.6,128.3,135.6,128.3z M60.2,121v1.8c0,2.3,1.9,4.2,4.2,4.2h71.2c2.3,0,4.2-1.9,4.2-4.2V121H60.2z"/>
		</g>
		<g>
			<path class="st19" d="M105.3,123.4H94.7c-1.4,0-2.5-1.1-2.5-2.5v-0.1c0-0.3,0.2-0.5,0.5-0.5h14.5c0.3,0,0.5,0.2,0.5,0.5
				C107.7,122.3,106.6,123.4,105.3,123.4z M93.3,121.4c0.2,0.6,0.7,1.1,1.4,1.1h10.6c0.6,0,1.2-0.5,1.4-1.1H93.3z"/>
		</g>
		<g>
			<path class="st19" d="M107.7,101.6H92.3c-0.9,0-1.8-0.5-2.3-1.3c-0.5-0.8-0.5-1.8,0-2.6l2.2-3.8c0.2-0.3,0.6-0.4,0.9-0.2
				c0.3,0.2,0.4,0.6,0.2,0.9l-2.2,3.8c-0.2,0.4-0.2,0.9,0,1.3s0.7,0.7,1.1,0.7h15.5c0.5,0,0.9-0.2,1.1-0.7s0.2-0.9,0-1.3l-7.7-13.4
				c-0.2-0.4-0.7-0.7-1.1-0.7l0,0c-0.5,0-0.9,0.2-1.1,0.7l-4,6.9c-0.2,0.3-0.6,0.4-0.9,0.2c-0.3-0.2-0.4-0.6-0.2-0.9l4-6.9
				c0.5-0.8,1.3-1.3,2.3-1.3c0,0,0,0,0,0c0.9,0,1.8,0.5,2.3,1.3l7.7,13.4c0.5,0.8,0.5,1.8,0,2.6
				C109.5,101.1,108.7,101.6,107.7,101.6z"/>
		</g>
		<g>
			<path class="st19" d="M100,96.1c-0.4,0-0.7-0.3-0.7-0.7v-7.7c0-0.4,0.3-0.7,0.7-0.7s0.7,0.3,0.7,0.7v7.7
				C100.6,95.8,100.4,96.1,100,96.1z"/>
		</g>
		<g>
			<circle class="st19" cx="100" cy="98" r="0.8"/>
		</g>
		<g>
			<g>
				<path class="st10" d="M101.4,108.5H89.5c-0.4,0-0.7-0.3-0.7-0.7s0.3-0.7,0.7-0.7h11.9c0.4,0,0.7,0.3,0.7,0.7
					S101.7,108.5,101.4,108.5z"/>
			</g>
			<g>
				<path class="st10" d="M110.5,108.5h-4.6c-0.4,0-0.7-0.3-0.7-0.7s0.3-0.7,0.7-0.7h4.6c0.4,0,0.7,0.3,0.7,0.7
					S110.8,108.5,110.5,108.5z"/>
			</g>
		</g>
		<g>
			<g>
				<path class="st10" d="M115,112.9H97.1c-0.4,0-0.7-0.3-0.7-0.7s0.3-0.7,0.7-0.7H115c0.4,0,0.7,0.3,0.7,0.7S115.3,112.9,115,112.9
					z"/>
			</g>
			<g>
				<path class="st10" d="M92.6,112.9H85c-0.4,0-0.7-0.3-0.7-0.7s0.3-0.7,0.7-0.7h7.6c0.4,0,0.7,0.3,0.7,0.7S93,112.9,92.6,112.9z"
					/>
			</g>
		</g>
		<g>
			<path class="st10" d="M60.3,110.3c-0.4,0-0.7-0.3-0.7-0.7v-7.4c0-0.4,0.3-0.7,0.7-0.7s0.7,0.3,0.7,0.7v7.4
				C61,110,60.7,110.3,60.3,110.3z"/>
		</g>
	</g>
	<g>
		<path class="st14" d="M49.8,39.7l-0.5-0.2c-0.3-0.1-0.4-0.4-0.3-0.7l1.6-3.6c0.1-0.3,0.4-0.4,0.7-0.3l0.5,0.2
			c0.3,0.1,0.4,0.4,0.3,0.7l-1.6,3.6C50.4,39.7,50.1,39.9,49.8,39.7z"/>
		<path class="st14" d="M51,43.3L51,43.3c0.2-0.4,0.6-0.6,1-0.4l3.1,1.4c0.4,0.2,0.6,0.6,0.4,1l0,0c-0.2,0.4-0.6,0.6-1,0.4l-3.1-1.4
			C51,44.2,50.8,43.7,51,43.3z"/>
		<path class="st14" d="M47.1,44.7l0.5,0.2c0.3,0.1,0.4,0.4,0.3,0.7l-1.6,3.6c-0.1,0.3-0.4,0.4-0.7,0.3l-0.5-0.2
			c-0.3-0.1-0.4-0.4-0.3-0.7l1.6-3.6C46.5,44.7,46.8,44.6,47.1,44.7z"/>
		<path class="st14" d="M46,40.9l-0.2,0.5c-0.1,0.3-0.4,0.4-0.7,0.3L41.4,40c-0.3-0.1-0.4-0.4-0.3-0.7l0.2-0.5
			c0.1-0.3,0.4-0.4,0.7-0.3l3.6,1.6C46,40.3,46.1,40.6,46,40.9z"/>
	</g>
	<g>
		<path class="st2" d="M157.7,104.6l-5.4-5.4l-5,5c-0.3,0.3-0.8,0.3-1.1,0c-0.3-0.3-0.3-0.8,0-1.1l6.1-6.1l5.4,5.4l5.4-5.4l5.3,5.3
			l5-5l5.7,5.7c0.3,0.3,0.3,0.8,0,1.1c-0.3,0.3-0.8,0.3-1.1,0l-4.6-4.6l-5,5l-5.3-5.3L157.7,104.6z"/>
	</g>
</g>
</svg>
