<?xml version="1.0" encoding="utf-8"?>
<!-- Generator: Adobe Illustrator 25.2.1, SVG Export Plug-In . SVG Version: 6.00 Build 0)  -->
<svg version="1.1" id="Calque_2" xmlns="http://www.w3.org/2000/svg" xmlns:xlink="http://www.w3.org/1999/xlink" x="0px" y="0px"
	 viewBox="0 0 200 200" style="enable-background:new 0 0 200 200;" xml:space="preserve">
<style type="text/css">
	.st0{opacity:0.15;}
	.st1{opacity:0.7;}
	.st2{fill:#8D9299;}
	.st3{fill:#00C2DF;}
</style>
<circle class="st0" cx="100" cy="100.2" r="56.1"/>
<g class="st1">
	<path class="st2" d="M52,42.6l-0.5-0.2c-0.3-0.1-0.4-0.4-0.3-0.7l1.6-3.6c0.1-0.3,0.4-0.4,0.7-0.3L54,38c0.3,0.1,0.4,0.4,0.3,0.7
		l-1.6,3.6C52.5,42.6,52.2,42.8,52,42.6z"/>
	<path class="st2" d="M53.2,46.2L53.2,46.2c0.2-0.4,0.6-0.6,1-0.4l3.1,1.4c0.4,0.2,0.6,0.6,0.4,1l0,0c-0.2,0.4-0.6,0.6-1,0.4
		l-3.1-1.4C53.2,47.1,53,46.6,53.2,46.2z"/>
	<path class="st2" d="M49.2,47.6l0.5,0.2c0.3,0.1,0.4,0.4,0.3,0.7l-1.6,3.6c-0.1,0.3-0.4,0.4-0.7,0.3l-0.5-0.2
		c-0.3-0.1-0.4-0.4-0.3-0.7l1.6-3.6C48.7,47.6,49,47.5,49.2,47.6z"/>
	<path class="st2" d="M48.1,43.7l-0.2,0.5c-0.1,0.3-0.4,0.4-0.7,0.3l-3.6-1.6c-0.3-0.1-0.4-0.4-0.3-0.7l0.2-0.5
		c0.1-0.3,0.4-0.4,0.7-0.3l3.6,1.6C48.1,43.2,48.3,43.5,48.1,43.7z"/>
</g>
<g class="st1">
	<path class="st2" d="M145.5,131.4l-5.4-5.4l-5,5c-0.3,0.3-0.8,0.3-1.1,0c-0.3-0.3-0.3-0.8,0-1.1l6.1-6.1l5.4,5.4l5.4-5.4l5.3,5.3
		l5-5l5.7,5.7c0.3,0.3,0.3,0.8,0,1.1c-0.3,0.3-0.8,0.3-1.1,0l-4.6-4.6l-5,5l-5.3-5.3L145.5,131.4z"/>
</g>
<g>
	<path class="st2" d="M139.7,107.4h-7.4c-1.2,0-2.3-0.7-2.8-1.8l-6.1-13.3c-0.7-1.4-2.1-2.3-3.7-2.3H80.3c-1.6,0-3,0.9-3.7,2.3
		l-6.1,13.3c-0.5,1.1-1.6,1.8-2.8,1.8h-7.4c-0.5,0-0.8-0.4-0.8-0.8c0-0.5,0.4-0.8,0.8-0.8h7.4c0.5,0,1-0.3,1.3-0.8l6.1-13.4
		c1-2,3-3.2,5.2-3.2h39.4c2.2,0,4.2,1.2,5.2,3.2l0,0L131,105c0.2,0.5,0.7,0.8,1.3,0.8h7.4c0.5,0,0.8,0.4,0.8,0.8
		C140.5,107,140.1,107.4,139.7,107.4z"/>
	<path class="st2" d="M112.6,102H87.4c-0.8,0-1.4-0.6-1.4-1.4V99c0-0.8,0.6-1.4,1.4-1.4h25.1c0.8,0,1.4,0.6,1.4,1.4v1.6
		C114,101.3,113.3,102,112.6,102z"/>
</g>
<path class="st0" d="M138.4,51.2c-0.1,0.3-0.4,0.5-0.7,0.4c-7-1.2-18.1,2.1-27,12.3c-5.7,6.5-8.5,14.7-7.9,22.9l0.1,1.2l0.5-1
	c0.6-1.2,1.3-2.4,2-3.4c0.6-0.8,1.5-0.8,2.1-0.4c0.5,0.3,0.9,1,0.4,1.9c-1.5,2.6-3.2,5.7-4.4,9.2c-0.2,0.5-0.6,0.9-1.1,1.1
	c-0.5,0.1-1,0-1.4-0.4c-3.2-2.9-5.9-6.2-8.4-9.9c-0.4-0.5-0.3-1.1,0.2-1.6c0.3-0.3,0.8-0.6,1.3-0.6c0.2,0,0.5,0.1,0.7,0.2
	c1.6,0.9,3.1,2,4.4,3.2l0.6,0.5l0-0.8c-0.3-8.9,3.1-17.8,9.4-24.5c6.4-6.9,19.5-15.4,29-10.8C138.4,50.8,138.4,51,138.4,51.2z"/>
<path class="st3" d="M138.1,50.7c-9.5-4.7-22.5,3.9-29,10.8c-6.3,6.7-9.7,15.7-9.4,24.5l0,0.8l-0.6-0.5c-1.3-1.2-2.8-2.3-4.4-3.2
	c-0.2-0.1-0.5-0.2-0.7-0.2c-0.5,0-1,0.2-1.3,0.6c-0.4,0.5-0.5,1.1-0.2,1.6c2.5,3.7,5.2,7,8.4,9.9c0.4,0.4,0.9,0.5,1.4,0.4
	c0.5-0.1,0.9-0.5,1.1-1.1c1.2-3.5,2.9-6.7,4.4-9.2c0.5-0.9,0.1-1.6-0.4-1.9c-0.6-0.4-1.5-0.4-2.1,0.4c-0.7,1-1.4,2.2-2,3.4l-0.5,1
	l-0.1-1.2c-0.6-8.2,2.2-16.4,7.9-22.9c8.9-10.2,20-13.6,27-12.3c0.3,0.1,0.6-0.2,0.7-0.4C138.4,51,138.4,50.8,138.1,50.7z"/>
<path class="st2" d="M129.9,98.1l-2.6-5.7c-0.2-0.4,0-0.9,0.4-1.1v0c0.4-0.2,0.9,0,1.1,0.4l2.6,5.7c0.2,0.4,0,0.9-0.4,1.1l0,0
	C130.5,98.7,130.1,98.5,129.9,98.1z"/>
</svg>
