<?xml version="1.0" encoding="utf-8"?>
<!-- Generator: Adobe Illustrator 23.0.2, SVG Export Plug-In . SVG Version: 6.00 Build 0)  -->
<svg version="1.1" id="Calque_1" xmlns="http://www.w3.org/2000/svg" xmlns:xlink="http://www.w3.org/1999/xlink" x="0px" y="0px"
	 viewBox="0 0 200 200" style="enable-background:new 0 0 200 200;" xml:space="preserve">
<style type="text/css">
	.st0{opacity:0.15;fill:#2B2E33;}
	.st1{fill:#FFA400;}
	.st2{fill:#4891DC;}
	.st3{fill:#1C1C1C;}
	.st4{fill:none;}
	.st5{fill:#DEE2E5;}
	.st6{fill:#024B98;}
	.st7{fill:#3A3A3A;}
	.st8{fill:#C3C7CB;}
	.st9{fill:#ff0000;}
	.st10{fill:#FFFFFF;}
	.st11{fill:#F0F2F5;}
	.st12{fill:#004B98;}
	.st13{opacity:0.3;fill:#FFFFFF;}
	.st14{fill:#FE4A5D;}
	.st15{fill:none;stroke:#4891DC;stroke-width:1.5;stroke-linecap:round;stroke-miterlimit:10;}
	.st16{fill:none;stroke:#024B98;stroke-width:1.5;stroke-linecap:round;stroke-miterlimit:10;}
	.st17{fill:none;stroke:#4891DC;stroke-width:1.5;stroke-miterlimit:10;}
	.st18{fill:none;stroke:#024B98;stroke-width:1.5;stroke-miterlimit:10;}
	.st19{fill:#A8ADB1;}
	.st20{fill:#43474D;}
	.st21{fill:#00C18C;}
	.st22{fill:#0096AA;}
	.st23{fill:none;stroke:#FFFFFF;stroke-width:1.5;stroke-linecap:round;stroke-miterlimit:10;}
	.st24{fill:none;stroke:#A8ADB1;stroke-width:1.5;stroke-linecap:round;stroke-miterlimit:10;}
	.st25{fill:none;stroke:#A8ADB1;stroke-width:1.5;stroke-miterlimit:10;}
	.st26{fill:none;stroke:#FFFFFF;stroke-width:1.5;stroke-miterlimit:10;}
</style>
<g>
	<circle class="st11" cx="99.9" cy="99.9" r="56.1"/>
	<g>
		<path class="st1" d="M151.6,42.3l-0.5-0.2c-0.3-0.1-0.4-0.4-0.3-0.7l1.6-3.6c0.1-0.3,0.4-0.4,0.7-0.3l0.5,0.2
			c0.3,0.1,0.4,0.4,0.3,0.7l-1.6,3.6C152.2,42.3,151.9,42.5,151.6,42.3z"/>
		<path class="st1" d="M152.8,45.9L152.8,45.9c0.2-0.4,0.6-0.6,1-0.4l3.1,1.4c0.4,0.2,0.6,0.6,0.4,1l0,0c-0.2,0.4-0.6,0.6-1,0.4
			l-3.1-1.4C152.8,46.8,152.7,46.3,152.8,45.9z"/>
		<path class="st1" d="M148.9,47.3l0.5,0.2c0.3,0.1,0.4,0.4,0.3,0.7l-1.6,3.6c-0.1,0.3-0.4,0.4-0.7,0.3l-0.5-0.2
			c-0.3-0.1-0.4-0.4-0.3-0.7l1.6-3.6C148.3,47.3,148.6,47.1,148.9,47.3z"/>
		<path class="st1" d="M147.8,43.4l-0.2,0.5c-0.1,0.3-0.4,0.4-0.7,0.3l-3.6-1.6c-0.3-0.1-0.4-0.4-0.3-0.7l0.2-0.5
			c0.1-0.3,0.4-0.4,0.7-0.3l3.6,1.6C147.8,42.9,147.9,43.2,147.8,43.4z"/>
	</g>
	<g>
		<path class="st9" d="M37.3,98.3L32,92.9l-5,5c-0.3,0.3-0.8,0.3-1.1,0c-0.3-0.3-0.3-0.8,0-1.1l6.1-6.1l5.4,5.4l5.4-5.4l5.3,5.3l5-5
			l5.7,5.7c0.3,0.3,0.3,0.8,0,1.1c-0.3,0.3-0.8,0.3-1.1,0l-4.6-4.6l-5,5l-5.3-5.3L37.3,98.3z"/>
	</g>
	<g>
		<path class="st15" d="M83.2,111.9c-0.5,1.4-0.8,2.9-0.8,4.5v15.5h35v-7.2"/>
		<path class="st15" d="M117.4,120.4v-3.9c0-7.5-6-13.6-13.4-13.8v-5.4h-8.4v5.4c-4.3,0.2-8.2,2.4-10.6,5.7"/>
		<path class="st16" d="M120.2,135.4H79.6c-1,0-1.7-0.8-1.7-1.7v0c0-1,0.8-1.7,1.7-1.7h40.6c1,0,1.7,0.8,1.7,1.7v0
			C122,134.6,121.2,135.4,120.2,135.4z"/>
		<g>
			<path class="st6" d="M85.8,76.9v6.3c0,5.7,4.7,10.4,10.4,10.4h7.6c5.7,0,10.4-4.7,10.4-10.4v-6.3H85.8z"/>
		</g>
		<g>
			<rect x="86.1" y="122.9" class="st6" width="27.7" height="6"/>
		</g>
		<line class="st16" x1="82.5" y1="79.3" x2="82.5" y2="76.3"/>
		<path class="st16" d="M82.5,73v-5.1h35v15.5c0,3.6-1.4,6.9-3.7,9.4c-2.5,2.7-6.2,4.5-10.2,4.5h-7.3c-7.6,0-13.8-6.2-13.8-13.8"/>
		<path class="st15" d="M91.6,64.5h28.6c1,0,1.7,0.8,1.7,1.7v0c0,1-0.8,1.7-1.7,1.7H79.6c-1,0-1.7-0.8-1.7-1.7v0
			c0-1,0.8-1.7,1.7-1.7h8"/>
		<path class="st15" d="M121.1,85.3c0,3.6-1.4,6.9-3.7,9.4"/>
		<circle class="st6" cx="99.4" cy="107" r="1.3"/>
		<circle class="st6" cx="103.9" cy="111.1" r="1.3"/>
		<circle class="st6" cx="98.7" cy="114.6" r="1.3"/>
	</g>
</g>
</svg>
