<?xml version="1.0" encoding="utf-8"?>
<!-- Generator: Adobe Illustrator 23.0.2, SVG Export Plug-In . SVG Version: 6.00 Build 0)  -->
<svg version="1.1" id="Calque_1" xmlns="http://www.w3.org/2000/svg" xmlns:xlink="http://www.w3.org/1999/xlink" x="0px" y="0px"
	 viewBox="0 0 200 200" style="enable-background:new 0 0 200 200;" xml:space="preserve">
<style type="text/css">
	.st0{opacity:0.15;fill:#2B2E33;}
	.st1{fill:#FFA400;}
	.st2{fill:#4891DC;}
	.st3{fill:#1C1C1C;}
	.st4{fill:none;}
	.st5{fill:#DEE2E5;}
	.st6{fill:#024B98;}
	.st7{fill:#3A3A3A;}
	.st8{fill:#C3C7CB;}
	.st9{fill:#ff0000;}
	.st10{fill:#FFFFFF;}
	.st11{fill:#F0F2F5;}
	.st12{fill:#004B98;}
	.st13{opacity:0.3;fill:#FFFFFF;}
	.st14{fill:#FE4A5D;}
	.st15{fill:none;stroke:#4891DC;stroke-width:1.5;stroke-linecap:round;stroke-miterlimit:10;}
	.st16{fill:none;stroke:#024B98;stroke-width:1.5;stroke-linecap:round;stroke-miterlimit:10;}
	.st17{fill:none;stroke:#4891DC;stroke-width:1.5;stroke-miterlimit:10;}
	.st18{fill:none;stroke:#024B98;stroke-width:1.5;stroke-miterlimit:10;}
	.st19{fill:#A8ADB1;}
	.st20{fill:#43474D;}
	.st21{fill:#00C18C;}
	.st22{fill:#0096AA;}
	.st23{fill:none;stroke:#FFFFFF;stroke-width:1.5;stroke-linecap:round;stroke-miterlimit:10;}
	.st24{fill:none;stroke:#A8ADB1;stroke-width:1.5;stroke-linecap:round;stroke-miterlimit:10;}
	.st25{fill:none;stroke:#A8ADB1;stroke-width:1.5;stroke-miterlimit:10;}
	.st26{fill:none;stroke:#FFFFFF;stroke-width:1.5;stroke-miterlimit:10;}
</style>
<g>
	<circle class="st0" cx="100" cy="100" r="56.1"/>
	<g>
		<path class="st22" d="M151.7,42.5l-0.5-0.2c-0.3-0.1-0.4-0.4-0.3-0.7l1.6-3.6c0.1-0.3,0.4-0.4,0.7-0.3l0.5,0.2
			c0.3,0.1,0.4,0.4,0.3,0.7l-1.6,3.6C152.3,42.5,151.9,42.6,151.7,42.5z"/>
		<path class="st22" d="M152.9,46.1L152.9,46.1c0.2-0.4,0.6-0.6,1-0.4l3.1,1.4c0.4,0.2,0.6,0.6,0.4,1v0c-0.2,0.4-0.6,0.6-1,0.4
			l-3.1-1.4C152.9,46.9,152.7,46.5,152.9,46.1z"/>
		<path class="st22" d="M148.9,47.4l0.5,0.2c0.3,0.1,0.4,0.4,0.3,0.7l-1.6,3.6c-0.1,0.3-0.4,0.4-0.7,0.3l-0.5-0.2
			c-0.3-0.1-0.4-0.4-0.3-0.7l1.6-3.6C148.4,47.4,148.7,47.3,148.9,47.4z"/>
		<path class="st22" d="M147.8,43.6l-0.2,0.5c-0.1,0.3-0.4,0.4-0.7,0.3l-3.6-1.6c-0.3-0.1-0.4-0.4-0.3-0.7l0.2-0.5
			c0.1-0.3,0.4-0.4,0.7-0.3l3.6,1.6C147.8,43,148,43.3,147.8,43.6z"/>
	</g>
	<g>
		<path class="st1" d="M37.4,98.4L32,93l-5,5c-0.3,0.3-0.8,0.3-1.1,0c-0.3-0.3-0.3-0.8,0-1.1l6.1-6.1l5.4,5.4l5.4-5.4l5.3,5.3l5-5
			l5.7,5.7c0.3,0.3,0.3,0.8,0,1.1c-0.3,0.3-0.8,0.3-1.1,0l-4.6-4.6l-5,5L42.8,93L37.4,98.4z"/>
	</g>
	<path class="st23" d="M83.3,112.4c-0.5,1.4-0.8,2.9-0.8,4.5v15.5h35v-7.2"/>
	<path class="st23" d="M117.5,120.8v-3.9c0-7.5-6-13.6-13.4-13.8v-5.4h-8.4v5.4c-4.3,0.2-8.2,2.4-10.6,5.7"/>
	<path class="st24" d="M120.3,135.8H79.7c-1,0-1.7-0.8-1.7-1.7l0,0c0-1,0.8-1.7,1.7-1.7h40.6c1,0,1.7,0.8,1.7,1.7l0,0
		C122,135.1,121.2,135.8,120.3,135.8z"/>
	<g>
		<path class="st19" d="M85.8,77.4v6.3c0,5.7,4.7,10.4,10.4,10.4h7.6c5.7,0,10.4-4.7,10.4-10.4v-6.3H85.8z"/>
	</g>
	<g>
		<rect x="86.2" y="123.4" class="st19" width="27.7" height="6"/>
	</g>
	<line class="st24" x1="82.5" y1="79.8" x2="82.5" y2="76.7"/>
	<path class="st24" d="M82.5,73.5v-5.1h35v15.5c0,3.6-1.4,6.9-3.7,9.4c-2.5,2.7-6.2,4.5-10.2,4.5h-7.3c-7.6,0-13.8-6.2-13.8-13.8"/>
	<path class="st23" d="M91.7,64.9h28.6c1,0,1.7,0.8,1.7,1.7l0,0c0,1-0.8,1.7-1.7,1.7H79.7c-1,0-1.7-0.8-1.7-1.7l0,0
		c0-1,0.8-1.7,1.7-1.7h8"/>
	<path class="st23" d="M121.1,85.7c0,3.6-1.4,6.9-3.7,9.4"/>
	<circle class="st19" cx="99.5" cy="107.5" r="1.3"/>
	<circle class="st19" cx="104" cy="111.6" r="1.3"/>
	<circle class="st19" cx="98.7" cy="115.1" r="1.3"/>
</g>
</svg>
