<?xml version="1.0" encoding="utf-8"?>
<!-- Generator: Adobe Illustrator 26.3.1, SVG Export Plug-In . SVG Version: 6.00 Build 0)  -->
<svg version="1.1" id="Calque_1" xmlns="http://www.w3.org/2000/svg" xmlns:xlink="http://www.w3.org/1999/xlink" x="0px" y="0px"
	 viewBox="0 0 32 32" style="enable-background:new 0 0 32 32;" xml:space="preserve">
<style type="text/css">
	.st0{fill-rule:evenodd;clip-rule:evenodd;fill:url(#SVGID_1_);}
	.st1{fill:url(#SVGID_00000066486341005612343100000015522880897241732995_);}
	.st2{fill-rule:evenodd;clip-rule:evenodd;fill:#FFFFFF;}
</style>
<linearGradient id="SVGID_1_" gradientUnits="userSpaceOnUse" x1="5" y1="16" x2="29" y2="16">
	<stop  offset="0" style="stop-color:#00CBA8"/>
	<stop  offset="1" style="stop-color:#00ACFF"/>
</linearGradient>
<path class="st0" d="M28.7,13.8c-0.1,0.3-0.4,0.5-0.7,0.5c-0.1,0-0.1,0-0.2,0c-0.4-0.1-0.6-0.4-0.5-0.8c0.5-2.2,0.1-4.5-1.1-6.4
	c-1.2-1.9-3.2-3.3-5.5-3.7c-0.4-0.1-0.6-0.4-0.5-0.8c0.1-0.4,0.5-0.6,0.8-0.5c2.6,0.6,4.9,2.1,6.3,4.3C28.9,8.6,29.3,11.2,28.7,13.8
	z M20.6,6c2.6,0.6,4.5,3.9,4.4,6.4c0,0.3-0.2,0.6-0.5,0.7c-0.1,0-0.1,0-0.2,0c-0.4-0.1-0.7-0.4-0.7-0.8c0.1-1.6-1.3-4.3-3.2-4.8
	c-0.4-0.1-0.6-0.5-0.6-0.9C19.8,6.2,20.1,5.9,20.6,6C20.5,6,20.5,6,20.6,6z M22.1,22.5c0.6,0.4,0.9,1.1,0.9,1.8c0,1.2-0.9,2.1-2,2.2
	h-3.8h-6.3H7c-1.2,0-2.1-1-2-2.2c0-0.7,0.3-1.4,0.9-1.8c0.6-0.4,1.5-1.7,1.5-6.2c0-4.3,2.4-6.1,4.2-6.8l0-0.5c0-0.1,0-1.2,0.8-1.9
	c0.8-0.6,2.3-0.6,3.1,0c0.9,0.7,0.9,1.8,0.9,1.9v0.5c1.9,0.8,4.2,2.6,4.2,6.8C20.6,20.8,21.5,22.1,22.1,22.5z M15.1,9
	c0-0.1,0-1.4-1.1-1.4c-0.3,0-0.4,0.1-0.6,0.2c-0.4,0.3-0.5,1-0.4,1.2v0.1C13.3,9,13.7,9,14,9C14.4,9,14.7,9,15.1,9L15.1,9z
	 M15.9,10.6c-0.8-0.3-1.3-0.4-1.9-0.4c-0.5,0-1.1,0.1-2,0.4c-2.3,0.9-3.5,2.9-3.5,5.7c0,3.8-0.6,6.1-1.9,7.1
	c-0.3,0.2-0.4,0.5-0.4,0.9c0,0.6,0.4,1,0.9,1l3.8,0h6.3H21c0.5,0,0.9-0.4,0.8-1c0-0.4-0.2-0.7-0.4-0.9c-1.3-1-1.9-3.3-1.9-7.1
	C19.4,13.5,18.2,11.6,15.9,10.6z M13.2,13.3c-0.8,0.5-1.4,1.3-1.7,2.3c0,0.4-0.4,0.7-0.8,0.7l-0.1,0c-0.4-0.1-0.7-0.5-0.6-0.9
	c0.3-1.4,1.2-2.7,2.4-3.5h0c0.3-0.2,0.8-0.1,0.9,0.2c0,0,0,0,0,0.1C13.6,12.6,13.5,13,13.2,13.3z M14,30c-1.7,0-3-1-3-2.3h6
	C17,29,15.7,30,14,30z"/>
<g>
	
		<linearGradient id="SVGID_00000080170114466885794200000015151333639551530666_" gradientUnits="userSpaceOnUse" x1="1354.0751" y1="-111.4795" x2="2315.498" y2="773.2272">
		<stop  offset="0" style="stop-color:#00CBA8"/>
		<stop  offset="1" style="stop-color:#00ACFF"/>
	</linearGradient>
	
		<rect x="1303.4" y="-199" style="fill:url(#SVGID_00000080170114466885794200000015151333639551530666_);" width="1024" height="1024"/>
	<path class="st2" d="M2126.4,226c-1.6,7.1-7.9,12-14.9,12c-1.1,0-2.3-0.1-3.4-0.4c-8.2-1.9-13.4-10.1-11.6-18.3
		c11.4-50.7,2.4-102.7-25.4-146.6c-27.7-43.8-70.9-74.2-121.6-85.6c-8.2-1.9-13.5-10.1-11.6-18.3c1.8-8.3,10.1-13.4,18.3-11.6
		C2015-29.5,2065,5.6,2097.1,56.4C2129.2,107.1,2139.6,167.4,2126.4,226z M1944.4,48.3c57.4,13.7,99.4,89.3,97.2,145.2
		c0,7.2-5,13.5-12,15.2c-1.4,0.3-2.8,0.4-4.3,0.3c-9-1.2-15.5-9.2-14.9-18.2c1.4-36.9-28-99-71.7-109.5
		c-8.7-2.5-14.2-11.2-12.5-20.1c1-8.2,8.5-14.1,16.8-13.1C1943.5,48.1,1944,48.2,1944.4,48.3z M1978.5,425.8
		c12.9,9.7,20.4,25,20.3,41.3c0.9,26.3-19.4,48.4-45.4,49.3h-84.9h-138.9h-84.9c-26-1-46.3-23-45.4-49.3
		c-0.1-16.2,7.4-31.6,20.3-41.3c12.3-9.3,32.6-39.5,32.6-141c0-97.2,52.6-138.4,93.7-155.9l0-11.1c-0.1-2.4-0.7-28,18.1-43.4
		c17.7-14.5,50.5-14.5,68.7-0.1c19.3,15.3,19.8,40.7,19.8,43.5v11c41.1,17.5,93.7,58.7,93.7,155.9
		C1945.9,386.3,1966.2,416.5,1978.5,425.8z M1823.1,117.7c0-1.3-0.4-31.4-25-31.4c-5.6,0-9.8,1.3-13.2,4c-8.7,7.1-10.1,21.9-10,27
		v2.3c8.6-1.9,16.7-2.9,24.8-2.9c7.6,0,15.3,1,23.3,2.8V117.7z M1841.6,153.1c-17.1-6.8-29.8-9.8-41.8-9.8c-12.1,0-25.4,3-44.2,10.1
		c-50.6,21.5-76.8,65.7-76.8,131.2c0,87.3-14.1,140.3-43.2,162.3c-6.2,4.6-9.8,12-9.7,19.8c-0.4,12.7,8.5,22.5,19.8,22.9l83.9,0
		h138.9h84.9c10.3-0.4,19.2-10.2,18.8-21.7c0.1-8.9-3.6-16.3-9.7-20.9c-29.2-22.1-43.2-75.2-43.1-162.4
		C1919.3,219.2,1893.2,175,1841.6,153.1z M1780.4,214.1c-18.5,11.8-31.8,30.8-36.9,52.7c-1.1,8.8-8.3,15.4-16.8,15.4l-2.2-0.1
		c-9-2.3-14.8-11.5-13.2-21c6.7-33,26.2-61.6,53.9-79.2h-0.1c7.3-4.4,16.7-1.9,20.9,5.7c0.3,0.5,0.6,1,0.8,1.6
		C1791.1,198.1,1788.3,208.8,1780.4,214.1z M1799,596.3c-36.8,0-66.6-23.9-66.6-53.3h133.2C1865.6,572.4,1835.8,596.3,1799,596.3z"
		/>
</g>
</svg>
