<svg xmlns="http://www.w3.org/2000/svg" viewBox="0 0 200 200"><circle cx="100.023" cy="100.002" r="56.138" fill="#f0f2f5"/><g fill="#8d9299" opacity=".5"><rect width="1.589" height="5.026" x="51.935" y="37.533" rx=".537" transform="rotate(23.581 52.73 40.046)"/><rect width="1.589" height="5.026" x="54.682" y="44.535" rx=".795" transform="rotate(-66.419 55.476 47.048)"/><rect width="1.589" height="5.026" x="47.68" y="47.282" rx=".537" transform="rotate(-156.419 48.474 49.795)"/><rect width="1.589" height="5.026" x="44.933" y="40.28" rx=".537" transform="rotate(-66.419 45.728 42.793)"/></g><path fill="#8d9299" d="M145.503 131.235l-5.365-5.365-5.005 5.006a.8.8 0 01-1.132-1.132l6.137-6.137 5.365 5.365 5.418-5.418 5.335 5.335 5.002-5.002 5.75 5.749a.8.8 0 01-1.132 1.132l-4.618-4.618-5.002 5.002-5.335-5.335z" opacity=".5"/><g opacity=".5"><path fill="#a8adb2" d="M99.768 126.74a.75.75 0 01-.75-.75v-3.244a.75.75 0 011.5 0v3.244a.75.75 0 01-.75.75zM99.768 140.272a.75.75 0 01-.373-.1c-.233-.134-.532-.427-.532-.695V128.63a.75.75 0 111.5 0l.155 9.586 29.052-16.947v-20.64a.75.75 0 011.5 0v21.07a.75.75 0 01-.372.648l-30.552 17.822a.753.753 0 01-.378.102zM100.518 104.907l-1.5-.021.491-34.124L69.313 86.72l-.702-1.326 31.316-16.55a.75.75 0 011.1.674zM74.28 126.701a.75.75 0 01-.355-.089l-5.064-2.724a.75.75 0 01-.395-.666l.146-20.853a.75.75 0 01.75-.745h.005a.75.75 0 01.745.756l-.143 20.401 4.667 2.51a.75.75 0 01-.356 1.41z"/><path fill="#a8adb2" d="M100.144 103.739a.75.75 0 01.374.654l.002 14.874a.75.75 0 01-.75.745l-.115.066c-.414-.003-.638-.407-.635-.822l-.005-14.438M99.514 140.272a.753.753 0 01-.356-.09L78.162 128.89a.75.75 0 01.71-1.321l19.9 10.703.068-9.252a.768.768 0 01.755-.745.75.75 0 01.745.756l-.076 10.497a.75.75 0 01-.75.744z"/><path fill="#8d9299" d="M131.951 75.001a.747.747 0 01-.382-.105l-2.038-1.209a.75.75 0 01.765-1.29l2.039 1.21A.75.75 0 01131.95 75zM106.699 140.412a.75.75 0 01-.381-1.397l4.557-2.683a.75.75 0 01.76 1.293l-4.556 2.683a.746.746 0 01-.38.104z"/><path fill="#8d9299" d="M130.574 87.825a.749.749 0 01-.375-.101L99.9 70.156a.75.75 0 01-.162-1.17l8.657-8.912a.748.748 0 01.92-.123l16.484 9.754a.75.75 0 01-.764 1.291l-15.976-9.453-7.575 7.798 28.96 16.792 7.333-7.556-2.768-1.652a.75.75 0 01.769-1.288l3.582 2.138a.75.75 0 01.153 1.166l-8.401 8.656a.75.75 0 01-.539.228z"/><path fill="#8d9299" d="M104.351 115.83a.76.76 0 01-.241-.039.751.751 0 01-.448-.415l-4.583-10.693a.75.75 0 01.322-.95l30.806-17.312a.75.75 0 01.974.212l6.874 9.42a.75.75 0 01-.239 1.096l-33.098 18.586a.745.745 0 01-.367.096zm-3.628-11.12l3.989 9.308 31.633-17.764-5.984-8.2z"/><path fill="#8d9299" d="M93.658 116.594a.753.753 0 01-.368-.096l-32.588-18.33a.75.75 0 01-.25-1.08l7.892-11.457a.75.75 0 011.001-.22l30.806 18.332a.75.75 0 01.279.998l-6.11 11.457a.749.749 0 01-.451.366.736.736 0 01-.211.03zM62.153 97.263l31.204 17.552 5.413-10.15L69.182 87.06z"/><path fill="#8d9299" d="M68.963 86.806a.749.749 0 01-.576-.268l-7.892-9.42a.75.75 0 01.237-1.151l6.903-3.48a.75.75 0 01.675 1.34l-6.058 3.053 6.896 8.23L99.15 69.255l-5.971-7.96-19.68 9.9a.75.75 0 01-.675-1.34l20.242-10.183a.75.75 0 01.937.22l6.873 9.166a.75.75 0 01-.249 1.113L69.313 86.72a.75.75 0 01-.35.086z"/></g><path fill="currentColor" d="M136.4 47.596c-9.504-4.696-22.539 3.858-28.982 10.753a34.546 34.546 0 00-9.412 24.543l.028.803-.59-.545a22.881 22.881 0 00-4.447-3.206 1.392 1.392 0 00-.68-.174 1.765 1.765 0 00-1.255.563 1.259 1.259 0 00-.155 1.625 52.734 52.734 0 008.38 9.912 1.535 1.535 0 001.438.391 1.586 1.586 0 001.11-1.058 52.833 52.833 0 014.378-9.228 1.318 1.318 0 00-.447-1.883 1.483 1.483 0 00-2.086.427 32.554 32.554 0 00-2.031 3.403l-.545 1.046-.087-1.176a31.328 31.328 0 017.904-22.928c8.89-10.215 19.977-13.558 27.025-12.341a.646.646 0 00.683-.44.37.37 0 00-.229-.487z"/><path fill="#f2f3f7" d="M136.697 46.995c-9.83-4.858-23.189 3.855-29.769 10.896a35.296 35.296 0 00-9.61 24.249 23.597 23.597 0 00-3.997-2.782 2.304 2.304 0 00-2.752.52 1.92 1.92 0 00-.223 2.449 53.392 53.392 0 008.487 10.036 2.238 2.238 0 001.523.615 2.185 2.185 0 00.534-.067 2.274 2.274 0 001.578-1.49 52.259 52.259 0 014.326-9.112 1.993 1.993 0 00-.671-2.784 2.152 2.152 0 00-2.996.615 31.856 31.856 0 00-1.504 2.422 30.77 30.77 0 017.803-21.258c6.08-6.985 16.942-13.755 26.406-12.12a1.317 1.317 0 001.434-.894 1.036 1.036 0 00-.57-1.295zm-.068 1.087a.646.646 0 01-.683.44c-7.048-1.217-18.135 2.127-27.025 12.342a31.328 31.328 0 00-7.904 22.928l.087 1.176.545-1.046a32.554 32.554 0 012.03-3.404 1.483 1.483 0 012.087-.426 1.318 1.318 0 01.447 1.882 52.833 52.833 0 00-4.378 9.229 1.586 1.586 0 01-1.11 1.058 1.535 1.535 0 01-1.437-.391 52.734 52.734 0 01-8.382-9.912 1.259 1.259 0 01.155-1.625 1.765 1.765 0 011.256-.563 1.392 1.392 0 01.68.174 22.881 22.881 0 014.446 3.205l.59.545-.028-.803a34.546 34.546 0 019.413-24.543c6.443-6.894 19.478-15.448 28.982-10.752a.37.37 0 01.229.486z"/></svg>
