<?xml version="1.0" encoding="utf-8"?>
<!-- Generator: Adobe Illustrator 23.0.2, SVG Export Plug-In . SVG Version: 6.00 Build 0)  -->
<svg version="1.1" id="Calque_1" xmlns="http://www.w3.org/2000/svg" xmlns:xlink="http://www.w3.org/1999/xlink" x="0px" y="0px"
	 viewBox="0 0 200 200" style="enable-background:new 0 0 200 200;" xml:space="preserve">
<style type="text/css">
	.st0{opacity:0.15;fill:#2B2E33;}
	.st1{fill:#FFA400;}
	.st2{fill:#4891DC;}
	.st3{fill:#1C1C1C;}
	.st4{fill:none;}
	.st5{fill:#DEE2E5;}
	.st6{fill:#024B98;}
	.st7{fill:#3A3A3A;}
	.st8{fill:#C3C7CB;}
	.st9{fill:#ff0000;}
	.st10{fill:#FFFFFF;}
	.st11{fill:#F0F2F5;}
	.st12{fill:#004B98;}
	.st13{opacity:0.3;fill:#FFFFFF;}
	.st14{fill:#FE4A5D;}
	.st15{fill:none;stroke:#4891DC;stroke-width:1.5;stroke-linecap:round;stroke-miterlimit:10;}
	.st16{fill:none;stroke:#024B98;stroke-width:1.5;stroke-linecap:round;stroke-miterlimit:10;}
	.st17{fill:none;stroke:#4891DC;stroke-width:1.5;stroke-miterlimit:10;}
	.st18{fill:none;stroke:#024B98;stroke-width:1.5;stroke-miterlimit:10;}
	.st19{fill:#A8ADB1;}
	.st20{fill:#43474D;}
	.st21{fill:#00C18C;}
	.st22{fill:#0096AA;}
	.st23{fill:none;stroke:#FFFFFF;stroke-width:1.5;stroke-linecap:round;stroke-miterlimit:10;}
	.st24{fill:none;stroke:#A8ADB1;stroke-width:1.5;stroke-linecap:round;stroke-miterlimit:10;}
	.st25{fill:none;stroke:#A8ADB1;stroke-width:1.5;stroke-miterlimit:10;}
	.st26{fill:none;stroke:#FFFFFF;stroke-width:1.5;stroke-miterlimit:10;}
</style>
<g>
	<circle class="st10" cx="100" cy="100" r="56.1"/>
	<path class="st1" d="M51.1,41.9l1.6-3.6c0.1-0.3,0.4-0.4,0.7-0.3l0.5,0.2c0.3,0.1,0.4,0.4,0.3,0.7l-1.6,3.6
		c-0.1,0.3-0.4,0.4-0.7,0.3l-0.5-0.2C51.1,42.5,50.9,42.2,51.1,41.9z"/>
	<path class="st1" d="M57.2,47.4L54.1,46c-0.4-0.2-0.8,0-1,0.4c-0.2,0.4,0,0.8,0.4,1l3.2,1.4c0.4,0.1,0.9-0.1,1-0.5
		C57.7,48,57.6,47.6,57.2,47.4L57.2,47.4z"/>
	<path class="st1" d="M46.8,51.7l1.6-3.6c0.1-0.3,0.4-0.4,0.7-0.3l0.5,0.2c0.3,0.1,0.4,0.4,0.3,0.7l-1.6,3.6
		c-0.1,0.3-0.4,0.4-0.7,0.3l-0.5-0.2C46.8,52.3,46.7,52,46.8,51.7z"/>
	<path class="st1" d="M43.2,42.4l0.2-0.5c0.1-0.3,0.4-0.4,0.7-0.3l3.6,1.6c0.3,0.1,0.4,0.4,0.3,0.7l-0.2,0.5
		c-0.1,0.3-0.4,0.4-0.7,0.3l-3.6-1.6C43.2,43,43.1,42.7,43.2,42.4z"/>
	<path class="st2" d="M82.8,163.4c-0.7-22.7,5.4-38.9,5.4-38.9c-3.3,1.3-3.3,14.2-11.2,25.2s-22.2,16.9-27.9,1.4s8.1-28.2,8.1-28.2
		c2.2-0.2,2,2.1,2,2.1s-11.6,15.9-3.7,20.8s11.8,0.2,14.8-10.4s9.2-26.4,19.1-24.5c0,0,6.8,0.7,21,3.3c13.9,2.6,9.8,13.9,10,15.5"/>
	<path class="st3" d="M94.2,98.8c0.5-1.2,1.7-1.9,3-1.9c2.4-0.2,6.1,1.9,6.4,3.3C103.6,100.2,93.1,101.2,94.2,98.8z"/>
	<path class="st4" d="M127.7,89.5c3.3-0.4,4.8-1.8,4.4-10.2c0-0.9-0.1-1.7-0.2-2.4c-2.1,5.2-4.2,11.9-4.2,11.9
		S127.7,89.5,127.7,89.5z"/>
	<path class="st5" d="M127.7,89.5v-0.8c0,0,3.3-14.7,5.9-16l-3-8l-7.1,0.7l-5.3-5.3l-8-2.6h-6.1l-9,1L89.9,62l-2.1,3.8h-1
		c-1.9,9.7-3,19.6-3.3,29.5c-0.1,6.6-2.6,0.9-4.1,9.4s29.3,8.6,38.8,9C126.8,114.2,127.7,93.6,127.7,89.5"/>
	<path class="st3" d="M108.7,73.7c0,0,1.9-0.5,2,2.8s-0.7,3.6-1.7,3.5s-0.9-1.3-0.9-2.3S108,73.7,108.7,73.7z M89.7,70.3
		c0,0,3.1-0.7,3.3,3.8s-1.2,4.8-2.7,4.7s-1.5-1.7-1.5-3.1S88.6,70.3,89.7,70.3z M92.9,102.7c0.3,0.1,0.6,0.1,0.9,0.2l0.9,0.2
		l0.9,0.3l0.9,0.3C95.3,103.5,94.1,103.2,92.9,102.7C92.9,102.7,92.9,102.7,92.9,102.7z"/>
	<path class="st5" d="M64.4,121.7c2.2,1.7,3.6,1.5,4.5,0.8c0.7-0.7,0.2-2.4-1.7-3.5"/>
	<path class="st5" d="M67.2,119c1.5,0.7,2.6,1,3.2-0.2c0.5-0.8-0.5-1.9-2.2-2.8c-0.1-0.1-0.3-0.1-0.4-0.2c-1.1-0.2-1.9-0.9-2.3-1.8
		c-0.7-1.5-3.2-1.5-4.3-0.7c-3.5,2.6-4.6,5.6-3.7,8.2s6.8,4.1,7.6,2.7s-0.4-1.7-0.8-2.5"/>
	<path class="st6" d="M133,75.4c0,0.2,0.2,0.3,0.3,0.3c0,0,0.1,0,0.1,0c3.5-1.7,5.9-5.1,6.2-9c0.5-6.8,2.7-20.5-5.5-22.5
		s-18.7-2.8-21,1.3c-1.8,3.1-2.5,1.8-2.5,1.8s-2-3.2-5.5-3.2c-3.8,0-11.7,0.3-13.2,0.8c-1.8,0.5-3.1,2-3.5,3.8
		c-0.5,2,0.2,8.5-1.7,8.2S84.3,55,85,51.6c0.1-0.2-0.1-0.4-0.3-0.5c-0.1,0-0.1,0-0.2,0c-1.3,0.2-4.3,1.1-4.3,4.3
		c0,4.1-0.6,10.7,7.6,10.4s7.9-2.7,8-3.8s2.3-2.1,6.2-1.9c1,0,2,0.1,3,0c2.9-0.1,9.2,0,11.9,3c3.6,3.9,2.8,5.8,5.7,5.2
		s7.6-0.6,8.5,1.4C132.1,71.6,132.7,73.4,133,75.4z"/>
	<path class="st3" d="M89.9,57.5c-8.6-0.1-15.6,6.7-15.8,15.3c0,5.2,2.7,10,7.1,12.8l-15.4,28.6c-0.2,0.3,0,0.7,0.3,0.9c0,0,0,0,0,0
		l0.9,0.5c0.3,0.2,0.7,0.1,0.9-0.3l15.4-28.6c2.1,0.9,4.3,1.4,6.6,1.4c8.4,0.3,15.5-6.3,15.8-14.7S99.5,57.8,91,57.5
		C90.6,57.5,90.3,57.5,89.9,57.5z M89.9,86.1c-7.3-0.3-13.1-6.4-12.8-13.8c0.3-7.3,6.4-13.1,13.8-12.8c7.2,0.3,12.8,6.1,12.8,13.3
		C103.6,80.2,97.4,86.2,89.9,86.1z"/>
	<path class="st7" d="M92.2,62c1.5,0.2,6.1,1.4,8.2,7.6c0,0.1,0,0.1,0,0.1c0,0-0.1,0-0.1,0c-1.1-1.3-4.1-5.5-8-7.5
		C92.1,62.2,92.1,62.1,92.2,62C92.1,62,92.1,62,92.2,62z"/>
	<path class="st2" d="M124.5,47.5c-0.1,0-0.1-0.1-0.1-0.1c0-0.1,0.1-0.1,0.1-0.1c2,0.1,6.1,0.5,8.4,1.9c1.7,1.2,2.9,3.1,3,5.2
		c0,0.1,0,0.1-0.1,0.1c0,0-0.1,0-0.1-0.1C134.8,53.2,131.5,49.3,124.5,47.5z"/>
	<path class="st3" d="M91.9,100c0.5-1.2,1.7-1.9,3-1.9c2.4-0.2,6.1,1.9,6.4,3.3C101.3,101.4,90.8,102.4,91.9,100z"/>
	<path class="st6" d="M88.2,124.5c0,0-4.7,37.5-5.4,38.9C82.8,163.4,81.9,141.8,88.2,124.5z"/>
	<path class="st2" d="M122.1,68.4c0.8-0.4,1.5-0.6,2.4-0.8c0.8-0.2,1.7-0.3,2.5-0.3c0.9,0,1.7,0.1,2.6,0.3c1.1,0.2,2,0.9,2.5,1.8
		l-0.1-0.1c0.3,0.5,0.5,1.1,0.7,1.6c0.2,0.5,0.3,1.1,0.4,1.7c0.1,0.6,0.2,1.1,0.2,1.7v0.8c0,0.2-0.1,0.4,0.3,0.3v0.1
		c-0.1,0.1-0.3,0.2-0.4,0.1c-0.1-0.1-0.2-0.2-0.2-0.4c0-0.3-0.1-0.5-0.1-0.8c-0.1-0.5-0.2-1.1-0.4-1.6c-0.3-1-0.8-2.1-1.3-3
		c-0.4-0.7-1.1-1.1-1.9-1.3c-0.8-0.2-1.6-0.3-2.4-0.4c-1.6-0.1-3.2,0-4.8,0.3L122.1,68.4z"/>
	<path class="st5" d="M120,77.2c0,0-0.9-6.1,2.9-6.7s8.3-2.4,8.8,8s-1.9,10-7,10.3s-4-4.9-4-4.9"/>
	<path class="st8" d="M120,77.2c-0.2-0.9-0.2-1.9-0.1-2.9c0-1,0.3-1.9,0.9-2.8c0.1-0.2,0.3-0.4,0.5-0.6l0.3-0.2l0.3-0.2
		c0.5-0.2,0.9-0.3,1.4-0.4c0.9-0.2,1.9-0.3,2.9-0.4c1-0.1,2,0.1,2.9,0.7c0.8,0.6,1.4,1.4,1.8,2.3c0.6,1.8,1,3.7,1,5.7
		c0.1,1.9,0.1,3.8-0.1,5.7c-0.1,1-0.4,1.9-0.9,2.8c-0.1,0.2-0.3,0.4-0.4,0.6c-0.2,0.2-0.4,0.4-0.6,0.5c-0.4,0.3-0.9,0.5-1.4,0.6
		c-0.9,0.2-1.9,0.3-2.9,0.4c-1,0.1-2,0.1-2.9-0.1c-1-0.3-1.7-1.1-2-2.1c-0.2-0.9-0.2-1.9,0-2.9c-0.1,0.9-0.1,1.9,0.3,2.8
		c0.3,0.9,1,1.5,1.9,1.7c0.9,0.2,1.8,0.2,2.7,0.1c0.9,0,1.9-0.1,2.8-0.3c0.4-0.1,0.8-0.3,1.2-0.5c0.2-0.1,0.3-0.3,0.5-0.4
		c0.1-0.2,0.3-0.3,0.4-0.5c0.4-0.8,0.7-1.7,0.8-2.6c0.2-1.9,0.2-3.8,0.1-5.7c0-1.9-0.4-3.7-1-5.5c-0.3-0.8-0.9-1.6-1.6-2.1
		c-0.8-0.5-1.7-0.7-2.6-0.6c-0.9,0.1-1.9,0.2-2.8,0.4c-0.4,0.1-0.9,0.2-1.3,0.4l-0.3,0.2l-0.2,0.2c-0.2,0.1-0.3,0.3-0.4,0.5
		c-0.5,0.7-0.9,1.6-1,2.5C120,75.3,119.9,76.3,120,77.2z"/>
	<path class="st8" d="M128.1,80.8c0.5,0.9,0.6,1.9,0.4,2.9c-0.1,0.3-0.3,0.5-0.5,0.7c-0.2,0.1-0.5,0.2-0.8,0.2l-1.4,0.2
		c-0.3,0-0.6,0-0.8-0.1c-0.2-0.2-0.4-0.4-0.4-0.7c-0.1-0.5-0.2-1-0.3-1.4c-0.2-1-0.3-1.9-0.3-2.9c0-0.3,0-0.5,0.1-0.8
		c0.1-0.3,0.2-0.5,0.5-0.7c0.3-0.1,0.5-0.1,0.8-0.1c0.2,0,0.5,0,0.7-0.1c0.4,0,1-0.2,0.9-0.5v-1.4c0-0.4-0.1-0.8-0.4-1.1
		c-0.2-0.2-0.8,0-1.3,0c-0.2,0-0.4,0.1-0.5,0.2c-0.1,0.2-0.1,0.4,0,0.6c0,0.2,0.1,0.5,0.1,0.7c0.1,0.2,0.3,0.2,0.5,0.2c0,0,0,0,0,0
		c-0.1,0.1-0.2,0.1-0.4,0.1c-0.1,0-0.3-0.1-0.3-0.2c-0.1-0.2-0.2-0.5-0.3-0.7c-0.1-0.3-0.1-0.5,0-0.8c0.1-0.3,0.4-0.4,0.7-0.5
		l0.7-0.1c0.3-0.1,0.6,0,0.8,0.1c0.3,0.2,0.5,0.4,0.5,0.7c0.1,0.3,0.1,0.5,0.1,0.8v1.5c-0.1,0.3-0.3,0.6-0.6,0.7
		c-0.2,0.1-0.5,0.1-0.8,0.2h-0.7c-0.2,0-0.4,0-0.6,0c-0.3,0.3-0.5,0.7-0.5,1.1c-0.1,1,0,1.9,0.2,2.9c0.1,0.5,0.2,0.9,0.4,1.4
		c0.1,0.2,0.2,0.4,0.4,0.5c0.2,0.1,0.4,0.1,0.6,0c0.5-0.1,0.9-0.2,1.4-0.3c0.4,0,0.8-0.2,1-0.6C128.3,82.5,128.3,81.6,128.1,80.8
		L128.1,80.8z"/>
	<path class="st9" d="M140.4,131.6l-5.4-5.4l-5,5c-0.3,0.3-0.8,0.3-1.1,0c-0.3-0.3-0.3-0.8,0-1.1l6.1-6.2l5.4,5.4l5.4-5.4l5.3,5.3
		l5-5l5.8,5.8c0.3,0.3,0.3,0.8,0,1.1c-0.3,0.3-0.8,0.3-1.1,0c0,0,0,0,0,0l-4.6-4.6l-5,5l-5.3-5.3L140.4,131.6z"/>
</g>
</svg>
