<svg xmlns="http://www.w3.org/2000/svg" id="Calque_1" x="0" y="0" version="1.1" viewBox="0 0 200 200" xml:space="preserve">
<circle fill="#2b2e33" opacity=".15" cx="100" cy="100" r="56.1" />
<path fill="#ffa400" d="M51.1 41.9l1.6-3.6c.1-.3.4-.4.7-.3l.5.2c.3.1.4.4.3.7l-1.6 3.6c-.1.3-.4.4-.7.3l-.5-.2c-.3-.1-.5-.4-.3-.7zM57.2 47.4L54.1 46c-.4-.2-.8 0-1 .4-.2.4 0 .8.4 1l3.2 1.4c.4.1.9-.1 1-.5 0-.3-.1-.7-.5-.9zM46.8 51.7l1.6-3.6c.1-.3.4-.4.7-.3l.5.2c.3.1.4.4.3.7l-1.6 3.6c-.1.3-.4.4-.7.3l-.5-.2c-.3-.1-.4-.4-.3-.7zM43.2 42.4l.2-.5c.1-.3.4-.4.7-.3l3.6 1.6c.3.1.4.4.3.7l-.2.5c-.1.3-.4.4-.7.3l-3.6-1.6c-.3-.1-.4-.4-.3-.7z" />
<path fill="#4891dc" d="M82.8 163.4c-.7-22.7 5.4-38.9 5.4-38.9-3.3 1.3-3.3 14.2-11.2 25.2s-22.2 16.9-27.9 1.4 8.1-28.2 8.1-28.2c2.2-.2 2 2.1 2 2.1s-11.6 15.9-3.7 20.8 11.8.2 14.8-10.4 9.2-26.4 19.1-24.5c0 0 6.8.7 21 3.3 13.9 2.6 9.8 13.9 10 15.5" />
<path fill="#1c1c1c" d="M94.2 98.8c.5-1.2 1.7-1.9 3-1.9 2.4-.2 6.1 1.9 6.4 3.3 0 0-10.5 1-9.4-1.4z" />
<path fill="#dee2e5" d="M127.7 89.5v-.8s3.3-14.7 5.9-16l-3-8-7.1.7-5.3-5.3-8-2.6h-6.1l-9 1-5.2 3.5-2.1 3.8h-1c-1.9 9.7-3 19.6-3.3 29.5-.1 6.6-2.6.9-4.1 9.4s29.3 8.6 38.8 9c8.6.5 9.5-20.1 9.5-24.2" />
<path fill="#1c1c1c" d="M108.7 73.7s1.9-.5 2 2.8-.7 3.6-1.7 3.5-.9-1.3-.9-2.3-.1-4 .6-4zm-19-3.4s3.1-.7 3.3 3.8-1.2 4.8-2.7 4.7-1.5-1.7-1.5-3.1-.2-5.4.9-5.4zm3.2 32.4c.3.1.6.1.9.2l.9.2.9.3.9.3c-1.2-.2-2.4-.5-3.6-1z" />
<path fill="#dee2e5" d="M64.4 121.7c2.2 1.7 3.6 1.5 4.5.8.7-.7.2-2.4-1.7-3.5" />
<path fill="#dee2e5" d="M67.2 119c1.5.7 2.6 1 3.2-.2.5-.8-.5-1.9-2.2-2.8-.1-.1-.3-.1-.4-.2-1.1-.2-1.9-.9-2.3-1.8-.7-1.5-3.2-1.5-4.3-.7-3.5 2.6-4.6 5.6-3.7 8.2s6.8 4.1 7.6 2.7-.4-1.7-.8-2.5" />
<path fill="#024b98" d="M133 75.4c0 .2.2.3.3.3h.1c3.5-1.7 5.9-5.1 6.2-9 .5-6.8 2.7-20.5-5.5-22.5s-18.7-2.8-21 1.3c-1.8 3.1-2.5 1.8-2.5 1.8s-2-3.2-5.5-3.2c-3.8 0-11.7.3-13.2.8-1.8.5-3.1 2-3.5 3.8-.5 2 .2 8.5-1.7 8.2S84.3 55 85 51.6c.1-.2-.1-.4-.3-.5h-.2c-1.3.2-4.3 1.1-4.3 4.3 0 4.1-.6 10.7 7.6 10.4s7.9-2.7 8-3.8 2.3-2.1 6.2-1.9c1 0 2 .1 3 0 2.9-.1 9.2 0 11.9 3 3.6 3.9 2.8 5.8 5.7 5.2s7.6-.6 8.5 1.4c1 1.9 1.6 3.7 1.9 5.7z"/>
<path fill="#1c1c1c" d="M89.9 57.5c-8.6-.1-15.6 6.7-15.8 15.3 0 5.2 2.7 10 7.1 12.8l-15.4 28.6c-.2.3 0 .7.3.9l.9.5c.3.2.7.1.9-.3l15.4-28.6c2.1.9 4.3 1.4 6.6 1.4 8.4.3 15.5-6.3 15.8-14.7S99.5 57.8 91 57.5h-1.1zm0 28.6c-7.3-.3-13.1-6.4-12.8-13.8.3-7.3 6.4-13.1 13.8-12.8 7.2.3 12.8 6.1 12.8 13.3-.1 7.4-6.3 13.4-13.8 13.3z" />
<path fill="#3a3a3a" d="M92.2 62c1.5.2 6.1 1.4 8.2 7.6v.1h-.1c-1.1-1.3-4.1-5.5-8-7.5-.2 0-.2-.1-.1-.2-.1 0-.1 0 0 0z"/>
<path fill="#4891dc" d="M124.5 47.5c-.1 0-.1-.1-.1-.1 0-.1.1-.1.1-.1 2 .1 6.1.5 8.4 1.9 1.7 1.2 2.9 3.1 3 5.2 0 .1 0 .1-.1.1 0 0-.1 0-.1-.1-.9-1.2-4.2-5.1-11.2-6.9z" />
<path fill="#1c1c1c" d="M91.9 100c.5-1.2 1.7-1.9 3-1.9 2.4-.2 6.1 1.9 6.4 3.3 0 0-10.5 1-9.4-1.4z" />
<path fill="#024b98" d="M88.2 124.5s-4.7 37.5-5.4 38.9c0 0-.9-21.6 5.4-38.9z" />
<path fill="#4891dc" d="M122.1 68.4c.8-.4 1.5-.6 2.4-.8.8-.2 1.7-.3 2.5-.3.9 0 1.7.1 2.6.3 1.1.2 2 .9 2.5 1.8l-.1-.1c.3.5.5 1.1.7 1.6.2.5.3 1.1.4 1.7.1.6.2 1.1.2 1.7v.8c0 .2-.1.4.3.3v.1c-.1.1-.3.2-.4.1-.1-.1-.2-.2-.2-.4 0-.3-.1-.5-.1-.8-.1-.5-.2-1.1-.4-1.6-.3-1-.8-2.1-1.3-3-.4-.7-1.1-1.1-1.9-1.3-.8-.2-1.6-.3-2.4-.4-1.6-.1-3.2 0-4.8.3z" />
<path fill="#dee2e5" d="M120 77.2s-.9-6.1 2.9-6.7 8.3-2.4 8.8 8-1.9 10-7 10.3-4-4.9-4-4.9" />
<path fill="#c3c7cb" d="M120 77.2c-.2-.9-.2-1.9-.1-2.9 0-1 .3-1.9.9-2.8.1-.2.3-.4.5-.6l.3-.2.3-.2c.5-.2.9-.3 1.4-.4.9-.2 1.9-.3 2.9-.4 1-.1 2 .1 2.9.7.8.6 1.4 1.4 1.8 2.3.6 1.8 1 3.7 1 5.7.1 1.9.1 3.8-.1 5.7-.1 1-.4 1.9-.9 2.8-.1.2-.3.4-.4.6-.2.2-.4.4-.6.5-.4.3-.9.5-1.4.6-.9.2-1.9.3-2.9.4-1 .1-2 .1-2.9-.1-1-.3-1.7-1.1-2-2.1-.2-.9-.2-1.9 0-2.9-.1.9-.1 1.9.3 2.8.3.9 1 1.5 1.9 1.7.9.2 1.8.2 2.7.1.9 0 1.9-.1 2.8-.3.4-.1.8-.3 1.2-.5.2-.1.3-.3.5-.4.1-.2.3-.3.4-.5.4-.8.7-1.7.8-2.6.2-1.9.2-3.8.1-5.7 0-1.9-.4-3.7-1-5.5-.3-.8-.9-1.6-1.6-2.1-.8-.5-1.7-.7-2.6-.6-.9.1-1.9.2-2.8.4-.4.1-.9.2-1.3.4l-.3.2-.2.2c-.2.1-.3.3-.4.5-.5.7-.9 1.6-1 2.5-.2.8-.3 1.8-.2 2.7z" />
<path fill="#c3c7cb" d="M128.1 80.8c.5.9.6 1.9.4 2.9-.1.3-.3.5-.5.7-.2.1-.5.2-.8.2l-1.4.2c-.3 0-.6 0-.8-.1-.2-.2-.4-.4-.4-.7-.1-.5-.2-1-.3-1.4-.2-1-.3-1.9-.3-2.9 0-.3 0-.5.1-.8.1-.3.2-.5.5-.7.3-.1.5-.1.8-.1.2 0 .5 0 .7-.1.4 0 1-.2.9-.5v-1.4c0-.4-.1-.8-.4-1.1-.2-.2-.8 0-1.3 0-.2 0-.4.1-.5.2-.1.2-.1.4 0 .6 0 .2.1.5.1.7.1.2.3.2.5.2-.1.1-.2.1-.4.1-.1 0-.3-.1-.3-.2-.1-.2-.2-.5-.3-.7-.1-.3-.1-.5 0-.8.1-.3.4-.4.7-.5l.7-.1c.3-.1.6 0 .8.1.3.2.5.4.5.7.1.3.1.5.1.8v1.5c-.1.3-.3.6-.6.7-.2.1-.5.1-.8.2H124.5c-.3.3-.5.7-.5 1.1-.1 1 0 1.9.2 2.9.1.5.2.9.4 1.4.1.2.2.4.4.5.2.1.4.1.6 0 .5-.1.9-.2 1.4-.3.4 0 .8-.2 1-.6.3-1 .3-1.9.1-2.7z" />
<path fill="#ff0000" d="M140.4 131.6l-5.4-5.4-5 5c-.3.3-.8.3-1.1 0-.3-.3-.3-.8 0-1.1l6.1-6.2 5.4 5.4 5.4-5.4 5.3 5.3 5-5 5.8 5.8c.3.3.3.8 0 1.1-.3.3-.8.3-1.1 0l-4.6-4.6-5 5-5.3-5.3-5.5 5.4z"/>
</svg>
