<svg xmlns="http://www.w3.org/2000/svg" viewBox="0 0 200 200"><circle cx="100" cy="100" r="56.14" fill="#fff"/><rect width="5.03" height="1.59" x="50.062" y="39.662" fill="currentColor" rx=".54" transform="rotate(-66.42 52.577 40.457)"/><path fill="currentColor" d="M57.21 47.42l-3.15-1.37a.764.764 0 10-.59 1.41l3.15 1.38a.8.8 0 00.63-1.46z"/><rect width="5.03" height="1.59" x="45.808" y="49.422" fill="currentColor" rx=".54" transform="rotate(-66.42 48.323 50.217)"/><rect width="1.59" height="5.03" x="44.791" y="40.686" fill="currentColor" rx=".54" transform="rotate(-66.42 45.586 43.201)"/><path fill="currentColor" d="M82.76 163.39c-.68-22.7 5.4-38.9 5.4-38.9-3.31 1.3-3.31 14.15-11.19 25.18s-22.22 16.87-27.89 1.42 8.08-28.17 8.08-28.17c2.16-.19 2 2.06 2 2.06s-11.61 15.87-3.73 20.76 11.76.2 14.79-10.38 9.23-26.36 19.07-24.51c0 0 6.77.68 21 3.3 13.94 2.58 9.76 13.94 10 15.51"/><path fill="#dee2e5" d="M64.39 121.73c2.24 1.65 3.63 1.54 4.5.76.72-.66.21-2.36-1.65-3.54"/><path fill="#dee2e5" d="M67.24 119c1.46.69 2.56 1 3.25-.2.47-.85-.5-1.88-2.17-2.8a1.27 1.27 0 00-.41-.15 3.06 3.06 0 01-2.35-1.85c-.7-1.52-3.16-1.52-4.27-.72-3.51 2.57-4.63 5.61-3.69 8.24s6.75 4.12 7.64 2.72-.36-1.74-.85-2.46"/><path fill="currentColor" d="M140.35 131.65l-5.35-5.36-5 5a.81.81 0 01-1.14 0 .8.8 0 010-1.13L135 124l5.37 5.37 5.41-5.42 5.34 5.33 5-5 5.75 5.75a.8.8 0 010 1.13.79.79 0 01-1.117.013l-.013-.013-4.62-4.61-5 5-5.34-5.34z"/><path fill="#fff" d="M82.76 163.39c-.68-22.7 5.4-38.9 5.4-38.9-3.31 1.3-3.31 14.15-11.19 25.18s-22.22 16.87-27.89 1.42 8.08-28.17 8.08-28.17c2.16-.19 2 2.06 2 2.06s-11.61 15.87-3.73 20.76 11.76.2 14.79-10.38 9.23-26.36 19.07-24.51c0 0 6.77.68 21 3.3 13.94 2.58 9.76 13.94 10 15.51" opacity=".6"/><path fill="#1c1c1c" d="M94.15 98.81a3.29 3.29 0 013-1.89c2.37-.16 6.1 1.89 6.44 3.31-.01 0-10.54.95-9.44-1.42z"/><path fill="none" d="M127.71 89.48c3.27-.39 4.76-1.75 4.39-10.17a17.408 17.408 0 00-.22-2.45c-2.11 5.21-4.16 11.87-4.16 11.87z"/><path fill="#dee2e5" d="M127.71 89.48v-.75s3.31-14.73 5.91-16l-3-8-7.09.68-5.3-5.3-8-2.6h-6.13l-9 .95L89.91 62l-2.06 3.85h-1a189.676 189.676 0 00-3.27 29.48c-.11 6.62-2.64.94-4.06 9.41s29.32 8.55 38.77 9c8.5.43 9.36-20.12 9.45-24.3"/><path fill="#1c1c1c" d="M108.73 73.72s1.89-.52 2 2.79-.71 3.55-1.66 3.47-.94-1.26-.94-2.28-.13-4.02.6-3.98zm-18.99-3.39s3.08-.7 3.34 3.78-1.16 4.8-2.7 4.7-1.54-1.71-1.54-3.1-.24-5.43.9-5.38zm3.17 32.38c.32.05.63.11.94.18l.91.24.89.26.91.27a11.638 11.638 0 01-3.66-1z"/><path fill="currentColor" d="M133 75.39a.3.3 0 00.43.24 10.88 10.88 0 006.23-9c.48-6.77 2.68-20.48-5.51-22.53s-18.65-2.82-21 1.26c-1.75 3.09-2.5 1.75-2.5 1.75s-2-3.19-5.54-3.17c-3.76 0-11.66.32-13.24.79a5 5 0 00-3.46 3.78c-.48 2.05.15 8.51-1.74 8.2S84.29 55 85 51.64a.41.41 0 00-.46-.5c-1.31.24-4.29 1.14-4.29 4.34 0 4.09-.63 10.71 7.57 10.4s7.88-2.68 8-3.79 2.3-2.09 6.18-1.87a23.101 23.101 0 003 0c2.87-.13 9.19 0 11.94 3 3.63 3.94 2.84 5.83 5.67 5.2s7.57-.63 8.51 1.42a16.21 16.21 0 011.88 5.55z"/><path fill="#1c1c1c" d="M89.91 57.47a15.56 15.56 0 00-15.79 15.29 15.16 15.16 0 007.11 12.76l-15.44 28.57a.65.65 0 00.268.88h.002l.94.51a.66.66 0 00.89-.26l15.44-28.58a16 16 0 006.58 1.41 15.3 15.3 0 101.106-30.58q-.553-.02-1.106 0zm0 28.58a13.3 13.3 0 1113.79-13.29 13.56 13.56 0 01-13.79 13.29z"/><path fill="#3a3a3a" d="M92.17 62c1.47.21 6.09 1.37 8.15 7.59a.11.11 0 01-.19.11c-1.11-1.29-4.13-5.47-8-7.5a.11.11 0 01.04-.2z"/><path fill="#fff" d="M124.48 47.45a.12.12 0 010-.24c2 .1 6.11.47 8.37 1.86a6.93 6.93 0 013 5.23.12.12 0 01-.22.08c-.8-1.19-4.12-5.09-11.15-6.93z" opacity=".6"/><path fill="#1c1c1c" d="M91.89 100a3.29 3.29 0 013-1.89c2.36-.16 6.1 1.89 6.44 3.31-.01.01-10.55.95-9.44-1.42z"/><path fill="#fff" d="M122.07 68.44a11.002 11.002 0 012.36-.81 12.843 12.843 0 012.49-.29 9.231 9.231 0 012.58.3 3.64 3.64 0 012.5 1.81l-.05-.09a10.438 10.438 0 01.72 1.62 10.933 10.933 0 01.44 1.68 8.878 8.878 0 01.2 1.71v.84c0 .25-.05.36.31.27v.09c-.12.05-.26.16-.44.08a.53.53 0 01-.21-.39 3.845 3.845 0 00-.15-.81 12.373 12.373 0 00-.41-1.59 14.83 14.83 0 00-1.31-3 3 3 0 00-1.87-1.27 10.383 10.383 0 00-2.36-.38 19.192 19.192 0 00-4.78.34z" opacity=".6"/><path fill="#dee2e5" d="M120 77.24s-.86-6.1 2.91-6.71 8.3-2.38 8.76 8-1.92 10-7 10.35-3.99-4.88-3.99-4.88"/><path fill="#c3c7cb" d="M120 77.24a11.893 11.893 0 01-.12-2.86 5.77 5.77 0 01.86-2.79 2.568 2.568 0 01.53-.56l.3-.25.34-.18a4.88 4.88 0 011.43-.4 20.734 20.734 0 012.86-.41 4.74 4.74 0 012.88.65 5.32 5.32 0 011.81 2.34 18.79 18.79 0 011 5.68 34.434 34.434 0 01-.14 5.74 7.44 7.44 0 01-.85 2.8 5.356 5.356 0 01-.44.62 6.907 6.907 0 01-.57.51 4.589 4.589 0 01-1.38.61 14.999 14.999 0 01-2.88.36 8 8 0 01-2.92-.14 3.09 3.09 0 01-2-2.11 5.89 5.89 0 010-2.86 5.67 5.67 0 00.27 2.78 2.67 2.67 0 001.91 1.71 7.79 7.79 0 002.74.12 14.78 14.78 0 002.78-.34 4.299 4.299 0 001.22-.53 5.104 5.104 0 00.48-.45 4.003 4.003 0 00.39-.53 7.25 7.25 0 00.79-2.63 34.315 34.315 0 00.13-5.65 18.19 18.19 0 00-1-5.51 4.88 4.88 0 00-1.62-2.11 4.25 4.25 0 00-2.59-.57 21.06 21.06 0 00-2.79.4 4.359 4.359 0 00-1.3.36l-.29.15-.24.21a2.56 2.56 0 00-.45.48 5.47 5.47 0 00-1 2.52 11.636 11.636 0 00-.14 2.84z"/><path fill="#c3c7cb" d="M128.07 80.76a4.32 4.32 0 01.36 2.93 1.25 1.25 0 01-.53.65 2.229 2.229 0 01-.77.23l-1.44.23a1.42 1.42 0 01-.82-.11 1.07 1.07 0 01-.45-.7c-.12-.49-.19-1-.27-1.44a16.782 16.782 0 01-.27-2.92 2.894 2.894 0 01.1-.76 1.12 1.12 0 01.48-.7 2.592 2.592 0 01.8-.13 2.381 2.381 0 00.7-.07c.45 0 1-.22.94-.46v-1.42a1.42 1.42 0 00-.37-1.1c-.25-.18-.83 0-1.28 0a.533.533 0 00-.49.21 1.27 1.27 0 000 .63 1.821 1.821 0 00.14.67.37.37 0 00.55.12.51.51 0 01-.36.14.5.5 0 01-.35-.21 1.57 1.57 0 01-.26-.71 1.65 1.65 0 010-.8.89.89 0 01.73-.46l.73-.12a1.36 1.36 0 01.85.1 1.21 1.21 0 01.53.72 3.507 3.507 0 01.12.78v1.49a.91.91 0 01-.63.71 3.14 3.14 0 01-.77.17h-.74a3.6 3.6 0 00-.64 0 1.57 1.57 0 00-.49 1.13 9.273 9.273 0 00.17 2.87 9.474 9.474 0 00.36 1.39.81.81 0 00.36.47 1.2 1.2 0 00.6 0c.46-.07.94-.2 1.43-.26a1 1 0 001-.59 5.09 5.09 0 00-.05-2.76z"/><path fill="currentColor" d="M88.16 124.49s-4.69 37.48-5.4 38.9c0 0-.9-21.6 5.4-38.9z"/></svg>
