<svg xmlns="http://www.w3.org/2000/svg" viewBox="0 0 200 200"><circle cx="99.996" cy="100.002" r="56.138" fill="#2b2e33" opacity=".15"/><rect width="1.589" height="5.026" x="50.441" y="35.19" fill="currentColor" rx=".537" transform="rotate(23.581 51.236 37.703)"/><rect width="1.589" height="5.026" x="53.188" y="42.192" fill="currentColor" rx=".795" transform="rotate(-66.419 53.983 44.705)"/><rect width="1.589" height="5.026" x="46.186" y="44.939" fill="currentColor" rx=".537" transform="rotate(-156.42 46.98 47.453)"/><rect width="1.589" height="5.026" x="43.439" y="37.937" fill="currentColor" rx=".537" transform="rotate(-66.419 44.234 40.45)"/><path fill="currentColor" d="M158.334 104.97l-5.364-5.366-5.005 5.006a.8.8 0 01-1.132-1.132l6.137-6.136 5.365 5.364 5.418-5.418 5.335 5.336 5.002-5.002 5.75 5.748a.8.8 0 11-1.133 1.132l-4.617-4.617-5.002 5.002-5.335-5.336z"/><path fill="#a8adb1" d="M113.492 92.063H87.627a2.952 2.952 0 01-2.949-2.948V72.642h1.3v16.473a1.65 1.65 0 001.65 1.649h25.864a1.65 1.65 0 001.648-1.649V72.642h1.3v16.473a2.952 2.952 0 01-2.948 2.948zM82.348 128.003a.65.65 0 01-.65-.65v-22.28a2.953 2.953 0 012.95-2.949h2.714a.65.65 0 110 1.3h-2.715a1.65 1.65 0 00-1.649 1.65v22.28a.65.65 0 01-.65.65zM118.77 128.003a.65.65 0 01-.65-.65v-22.28a1.65 1.65 0 00-1.648-1.648H92.927a.65.65 0 110-1.3h23.546a2.953 2.953 0 012.95 2.948v22.28a.65.65 0 01-.651.65z"/><path fill="#fff" d="M109.016 87.454h-.413a2.952 2.952 0 01-2.948-2.948v-5.09a2.952 2.952 0 012.948-2.948h.413a2.952 2.952 0 012.95 2.948v5.09a2.952 2.952 0 01-2.95 2.948zm-.413-9.686a1.65 1.65 0 00-1.647 1.648v5.09a1.65 1.65 0 001.647 1.648h.413a1.65 1.65 0 001.649-1.648v-5.09a1.65 1.65 0 00-1.649-1.648zM97.641 109.566h-9.127a.65.65 0 110-1.3h9.127a.65.65 0 110 1.3zM101.166 114.175H88.514a.65.65 0 110-1.3h12.652a.65.65 0 110 1.3z"/><circle cx="104.183" cy="113.524" r=".649" fill="#fff"/><path fill="#a8adb1" d="M71.079 110.399a.65.65 0 01-.65-.65v-6.114a.65.65 0 011.3 0v6.114a.65.65 0 01-.65.65z"/><path fill="#fff" d="M128.913 99.373a.65.65 0 01-.65-.65v-2.459a.65.65 0 011.301 0v2.459a.65.65 0 01-.65.65z"/><path fill="#fff" d="M125.779 128.189h-47.81a3.79 3.79 0 01-3.785-3.785V75.6a3.79 3.79 0 013.785-3.785h39.82a3.813 3.813 0 012.676 1.109l7.99 7.99a3.759 3.759 0 011.108 2.677v8.121a.65.65 0 01-1.3 0V83.59a2.466 2.466 0 00-.728-1.757l-7.99-7.991a2.5 2.5 0 00-1.757-.728H77.969a2.487 2.487 0 00-2.484 2.486v48.804a2.487 2.487 0 002.484 2.485h47.81a2.487 2.487 0 002.485-2.485v-20.947a.65.65 0 011.3 0v20.947a3.79 3.79 0 01-3.785 3.785z"/></svg>
