<?xml version="1.0" encoding="utf-8"?>
<!-- Generator: Adobe Illustrator 23.0.2, SVG Export Plug-In . SVG Version: 6.00 Build 0)  -->
<svg version="1.1" id="Calque_1" xmlns="http://www.w3.org/2000/svg" xmlns:xlink="http://www.w3.org/1999/xlink" x="0px" y="0px"
	 viewBox="0 0 200 200" style="enable-background:new 0 0 200 200;" xml:space="preserve">
<style type="text/css">
	.st0{opacity:0.15;fill:#2B2E33;}
	.st1{fill:#FFA400;}
	.st2{fill:#4891DC;}
	.st3{fill:#1C1C1C;}
	.st4{fill:none;}
	.st5{fill:#DEE2E5;}
	.st6{fill:#024B98;}
	.st7{fill:#3A3A3A;}
	.st8{fill:#C3C7CB;}
	.st9{fill:#ff0000;}
	.st10{fill:#FFFFFF;}
	.st11{fill:#F0F2F5;}
	.st12{fill:#004B98;}
	.st13{opacity:0.3;fill:#FFFFFF;}
	.st14{fill:#FE4A5D;}
	.st15{fill:none;stroke:#4891DC;stroke-width:1.5;stroke-linecap:round;stroke-miterlimit:10;}
	.st16{fill:none;stroke:#024B98;stroke-width:1.5;stroke-linecap:round;stroke-miterlimit:10;}
	.st17{fill:none;stroke:#4891DC;stroke-width:1.5;stroke-miterlimit:10;}
	.st18{fill:none;stroke:#024B98;stroke-width:1.5;stroke-miterlimit:10;}
	.st19{fill:#A8ADB1;}
	.st20{fill:#43474D;}
	.st21{fill:#00C18C;}
	.st22{fill:#0096AA;}
	.st23{fill:none;stroke:#FFFFFF;stroke-width:1.5;stroke-linecap:round;stroke-miterlimit:10;}
	.st24{fill:none;stroke:#A8ADB1;stroke-width:1.5;stroke-linecap:round;stroke-miterlimit:10;}
	.st25{fill:none;stroke:#A8ADB1;stroke-width:1.5;stroke-miterlimit:10;}
	.st26{fill:none;stroke:#FFFFFF;stroke-width:1.5;stroke-miterlimit:10;}
</style>
<g>
	<circle class="st10" cx="100" cy="100" r="56.1"/>
	<g>
		<path class="st1" d="M147.4,38.1l-0.5-0.2c-0.3-0.1-0.4-0.4-0.3-0.7l1.6-3.6c0.1-0.3,0.4-0.4,0.7-0.3l0.5,0.2
			c0.3,0.1,0.4,0.4,0.3,0.7l-1.6,3.6C148,38.1,147.7,38.2,147.4,38.1z"/>
		<path class="st1" d="M148.6,41.7L148.6,41.7c0.2-0.4,0.6-0.6,1-0.4l3.1,1.4c0.4,0.2,0.6,0.6,0.4,1l0,0c-0.2,0.4-0.6,0.6-1,0.4
			l-3.1-1.4C148.6,42.5,148.5,42.1,148.6,41.7z"/>
		<path class="st1" d="M144.7,43l0.5,0.2c0.3,0.1,0.4,0.4,0.3,0.7l-1.6,3.6c-0.1,0.3-0.4,0.4-0.7,0.3l-0.5-0.2
			c-0.3-0.1-0.4-0.4-0.3-0.7l1.6-3.6C144.1,43,144.4,42.9,144.7,43z"/>
		<path class="st1" d="M143.6,39.2l-0.2,0.5c-0.1,0.3-0.4,0.4-0.7,0.3l-3.6-1.6c-0.3-0.1-0.4-0.4-0.3-0.7l0.2-0.5
			c0.1-0.3,0.4-0.4,0.7-0.3l3.6,1.6C143.6,38.6,143.7,38.9,143.6,39.2z"/>
	</g>
	<g>
		<path class="st9" d="M32.3,104.9l-5.4-5.4l-5,5c-0.3,0.3-0.8,0.3-1.1,0c-0.3-0.3-0.3-0.8,0-1.1l6.1-6.1l5.4,5.4l5.4-5.4l5.3,5.3
			l5-5l5.7,5.7c0.3,0.3,0.3,0.8,0,1.1c-0.3,0.3-0.8,0.3-1.1,0l-4.6-4.6l-5,5l-5.3-5.3L32.3,104.9z"/>
	</g>
	<g>
		<g>
			<path class="st5" d="M88.2,133.5h-0.7c-0.2,0-0.4-0.2-0.4-0.4c0-0.2,0.2-0.4,0.4-0.4h0.7c0.2,0,0.4,0.2,0.4,0.4
				C88.6,133.3,88.4,133.5,88.2,133.5z"/>
		</g>
		<g>
			<path class="st5" d="M133,133.5h-1.3c-0.2,0-0.4-0.2-0.4-0.4c0-0.2,0.2-0.4,0.4-0.4h1.2c0,0,0,0,0.1,0c0.2-0.1,0.4-0.1,0.5,0.1
				c0.1,0.2,0.1,0.4-0.1,0.5c-0.2,0.1-0.2,0.1-0.2,0.1C133.1,133.5,133.1,133.5,133,133.5z M129.5,133.5H128c-0.2,0-0.4-0.2-0.4-0.4
				c0-0.2,0.2-0.4,0.4-0.4h1.5c0.2,0,0.4,0.2,0.4,0.4C129.8,133.3,129.7,133.5,129.5,133.5z M125.7,133.5h-1.5
				c-0.2,0-0.4-0.2-0.4-0.4c0-0.2,0.2-0.4,0.4-0.4h1.5c0.2,0,0.4,0.2,0.4,0.4C126.1,133.3,125.9,133.5,125.7,133.5z M122,133.5h-1.5
				c-0.2,0-0.4-0.2-0.4-0.4c0-0.2,0.2-0.4,0.4-0.4h1.5c0.2,0,0.4,0.2,0.4,0.4C122.3,133.3,122.2,133.5,122,133.5z M118.2,133.5h-1.5
				c-0.2,0-0.4-0.2-0.4-0.4c0-0.2,0.2-0.4,0.4-0.4h1.5c0.2,0,0.4,0.2,0.4,0.4C118.6,133.3,118.4,133.5,118.2,133.5z M114.5,133.5
				H113c-0.2,0-0.4-0.2-0.4-0.4c0-0.2,0.2-0.4,0.4-0.4h1.5c0.2,0,0.4,0.2,0.4,0.4C114.8,133.3,114.7,133.5,114.5,133.5z
				 M110.7,133.5h-1.5c-0.2,0-0.4-0.2-0.4-0.4c0-0.2,0.2-0.4,0.4-0.4h1.5c0.2,0,0.4,0.2,0.4,0.4
				C111.1,133.3,110.9,133.5,110.7,133.5z M107,133.5h-1.5c-0.2,0-0.4-0.2-0.4-0.4c0-0.2,0.2-0.4,0.4-0.4h1.5c0.2,0,0.4,0.2,0.4,0.4
				C107.3,133.3,107.2,133.5,107,133.5z M103.2,133.5h-1.5c-0.2,0-0.4-0.2-0.4-0.4c0-0.2,0.2-0.4,0.4-0.4h1.5c0.2,0,0.4,0.2,0.4,0.4
				C103.6,133.3,103.4,133.5,103.2,133.5z M99.5,133.5H98c-0.2,0-0.4-0.2-0.4-0.4c0-0.2,0.2-0.4,0.4-0.4h1.5c0.2,0,0.4,0.2,0.4,0.4
				C99.8,133.3,99.7,133.5,99.5,133.5z M95.7,133.5h-1.5c-0.2,0-0.4-0.2-0.4-0.4c0-0.2,0.2-0.4,0.4-0.4h1.5c0.2,0,0.4,0.2,0.4,0.4
				C96.1,133.3,95.9,133.5,95.7,133.5z M92,133.5h-1.5c-0.2,0-0.4-0.2-0.4-0.4c0-0.2,0.2-0.4,0.4-0.4H92c0.2,0,0.4,0.2,0.4,0.4
				C92.3,133.3,92.2,133.5,92,133.5z M134.7,131.7c-0.1,0-0.1,0-0.2-0.1c-0.2-0.1-0.2-0.3-0.1-0.5c0.2-0.4,0.5-0.8,0.6-1.3
				c0.1-0.2,0.3-0.3,0.5-0.2c0.2,0.1,0.3,0.3,0.2,0.5c-0.2,0.5-0.4,1-0.7,1.4C134.9,131.6,134.8,131.7,134.7,131.7z M136,128.2
				C136,128.2,136,128.2,136,128.2c-0.3-0.1-0.4-0.3-0.4-0.5c0.1-0.5,0.2-0.9,0.3-1.4c0-0.2,0.2-0.3,0.4-0.3c0.2,0,0.3,0.2,0.3,0.4
				c-0.1,0.5-0.2,1-0.3,1.5C136.3,128.1,136.2,128.2,136,128.2z M136.6,124.5C136.5,124.5,136.5,124.5,136.6,124.5
				c-0.2,0-0.4-0.2-0.4-0.4c0-0.5,0.1-1,0.1-1.5c0-0.2,0.2-0.4,0.4-0.4c0.2,0,0.4,0.2,0.4,0.4c0,0.5,0,1-0.1,1.5
				C136.9,124.4,136.7,124.5,136.6,124.5z M136.6,120.8C136.6,120.8,136.6,120.8,136.6,120.8c-0.2,0-0.4-0.2-0.4-0.4l0-1.5
				c0-0.2,0.2-0.4,0.4-0.4c0,0,0,0,0,0c0.2,0,0.4,0.2,0.4,0.4l0,1.5C137,120.6,136.8,120.8,136.6,120.8z M136.6,117.1
				C136.6,117.1,136.6,117.1,136.6,117.1c-0.2,0-0.4-0.2-0.4-0.4l0-1.5c0-0.2,0.2-0.4,0.4-0.4s0.4,0.2,0.4,0.4l0,1.5
				C137,116.9,136.9,117.1,136.6,117.1z M136.6,113.3c-0.2,0-0.4-0.2-0.4-0.4c0-0.5,0-1,0-1.5c0-0.2,0.2-0.4,0.4-0.4
				c0.2,0,0.4,0.2,0.4,0.4c0,0.5,0,1,0,1.5C137,113.1,136.8,113.3,136.6,113.3C136.6,113.3,136.6,113.3,136.6,113.3z M136.5,109.6
				c-0.2,0-0.4-0.2-0.4-0.3c0-0.5-0.1-1-0.1-1.5c0-0.2,0.1-0.4,0.3-0.4c0.2,0,0.4,0.1,0.4,0.3c0,0.5,0.1,1,0.1,1.5
				C136.9,109.4,136.7,109.6,136.5,109.6C136.5,109.6,136.5,109.6,136.5,109.6z M136.1,105.8c-0.2,0-0.3-0.1-0.4-0.3
				c-0.1-0.5-0.2-1-0.3-1.4c0-0.2,0.1-0.4,0.3-0.4c0.2,0,0.4,0.1,0.4,0.3c0.1,0.5,0.2,1,0.3,1.5
				C136.5,105.6,136.4,105.8,136.1,105.8C136.2,105.8,136.2,105.8,136.1,105.8z M135.1,102.3c-0.1,0-0.3-0.1-0.3-0.2
				c-0.2-0.5-0.5-0.8-0.8-1c-0.2-0.1-0.2-0.3-0.1-0.5c0.1-0.2,0.3-0.2,0.5-0.1c0.4,0.3,0.8,0.7,1.1,1.3c0.1,0.2,0,0.4-0.1,0.5
				C135.2,102.3,135.1,102.3,135.1,102.3z M132,100.8h-1.5c-0.2,0-0.4-0.2-0.4-0.4s0.2-0.4,0.4-0.4h1.5c0.2,0,0.4,0.2,0.4,0.4
				S132.2,100.8,132,100.8z M128.2,100.8h-1.5c-0.2,0-0.4-0.2-0.4-0.4s0.2-0.4,0.4-0.4h1.5c0.2,0,0.4,0.2,0.4,0.4
				S128.4,100.8,128.2,100.8z M124.5,100.8H123c-0.2,0-0.4-0.2-0.4-0.4s0.2-0.4,0.4-0.4h1.5c0.2,0,0.4,0.2,0.4,0.4
				S124.7,100.8,124.5,100.8z M120.7,100.8h-1.5c-0.2,0-0.4-0.2-0.4-0.4s0.2-0.4,0.4-0.4h1.5c0.2,0,0.4,0.2,0.4,0.4
				S120.9,100.8,120.7,100.8z M117,100.8h-1.5c-0.2,0-0.4-0.2-0.4-0.4s0.2-0.4,0.4-0.4h1.5c0.2,0,0.4,0.2,0.4,0.4
				S117.2,100.8,117,100.8z M113.3,100.8h-1.5c-0.2,0-0.4-0.2-0.4-0.4s0.2-0.4,0.4-0.4h1.5c0.2,0,0.4,0.2,0.4,0.4
				S113.5,100.8,113.3,100.8z M109.5,100.8H108c-0.2,0-0.4-0.2-0.4-0.4s0.2-0.4,0.4-0.4h1.5c0.2,0,0.4,0.2,0.4,0.4
				S109.7,100.8,109.5,100.8z"/>
		</g>
		<g>
			<path class="st5" d="M105.8,100.8h-0.7c-0.2,0-0.4-0.2-0.4-0.4s0.2-0.4,0.4-0.4h0.7c0.2,0,0.4,0.2,0.4,0.4S106,100.8,105.8,100.8
				z"/>
		</g>
	</g>
	<g>
		<g>
			<path class="st6" d="M131.2,81c-0.7-9.9-10.1-9.4-10.5-9.4l0-0.7c0.1,0,10.6-0.6,11.3,10L131.2,81z"/>
		</g>
		<g>
			<g>
				<polygon class="st6" points="128.2,78.9 128.7,78.3 131.5,80.7 133.6,77.7 134.2,78.2 131.6,81.8 				"/>
			</g>
		</g>
	</g>
	<g>
		<g>
			<path class="st6" d="M87.5,133.6c-0.1,0-0.2,0-0.3,0h-0.5c-0.1,0-0.1,0-0.2,0c-6.4,0-10.7,0-13.5-0.9c-3.1-0.9-4.4-2.8-4.4-6.4
				v-32c0-0.3,0.2-0.6,0.6-0.6c0.3,0,0.6,0.2,0.6,0.6v32c0,3.1,1,4.6,3.6,5.3c2.7,0.8,7.2,0.8,13.4,0.8h0.5c6.4,0,10.6,0,13.3-0.9
				c2.5-0.8,3.5-2.4,3.5-5.7V72c-0.3-0.6-2.5-3.9-11.5-3.9c-1.1,0-2.3,0-3.5,0C81.4,68,72.7,68,70.3,70.4c-0.4,0.4-0.6,0.9-0.6,1.5
				v12c0,0.3-0.2,0.6-0.6,0.6c-0.3,0-0.6-0.2-0.6-0.6v-12c0-0.9,0.3-1.6,1-2.3c2.8-2.7,11.2-2.7,19.4-2.6c1.2,0,2.4,0,3.5,0
				c10.6,0,12.5,4.5,12.6,4.6c0,0.1,0,0.1,0,0.2v54c0,3.8-1.3,5.8-4.3,6.8C98,133.6,93.8,133.6,87.5,133.6z"/>
		</g>
		<g>
			<path class="st2" d="M87,124.6c-0.8,0-1.5,0-2.3,0c-0.8,0-1.6,0-2.5,0c-5.4,0-8.7-0.8-10-2.4c-0.5-0.6-0.5-1.2-0.5-1.4V74.1
				c0-0.7,0.3-1.4,0.8-1.9c2.3-2.3,9.3-2.2,16-2.2c1,0,1.9,0,2.9,0c8.8,0,10.4,3.7,10.4,3.9c0,0.1,0,0.1,0,0.2v36.6
				c0,0.3-0.2,0.6-0.6,0.6c-0.3,0-0.6-0.2-0.6-0.6V74.2c-0.3-0.5-2.1-3.1-9.4-3.1c-0.9,0-1.9,0-2.9,0c-6.2,0-13.3-0.1-15.2,1.8
				c-0.3,0.3-0.5,0.7-0.5,1.1v46.8c0,0,0,0.1,0,0.1c0,0,0,0,0,0c0,0,0,0.3,0.3,0.6c0.6,0.7,2.6,1.9,9.1,1.9c0.8,0,1.7,0,2.5,0
				c6.8,0,12.7,0.1,15-2.3c0.8-0.8,1.1-1.8,1.1-3v-4.1c0-0.3,0.2-0.6,0.6-0.6c0.3,0,0.6,0.2,0.6,0.6v4.1c0,1.6-0.5,2.9-1.5,3.8
				C98.1,124.4,93.2,124.6,87,124.6z"/>
		</g>
		<g>
			<path class="st2" d="M87.4,131.1h-1.1c-0.9,0-1.7-0.7-1.7-1.7v-1.1c0-0.9,0.7-1.7,1.7-1.7h1.1c0.9,0,1.7,0.7,1.7,1.7v1.1
				C89.1,130.4,88.3,131.1,87.4,131.1z M86.3,127.8c-0.3,0-0.5,0.2-0.5,0.5v1.1c0,0.3,0.2,0.5,0.5,0.5h1.1c0.3,0,0.5-0.2,0.5-0.5
				v-1.1c0-0.3-0.2-0.5-0.5-0.5H86.3z"/>
		</g>
		<path class="st6" d="M69.1,91.4c-0.3,0-0.6-0.2-0.6-0.6v-3.2c0-0.3,0.2-0.6,0.6-0.6c0.3,0,0.6,0.2,0.6,0.6v3.2
			C69.6,91.2,69.4,91.4,69.1,91.4z"/>
	</g>
</g>
</svg>
