<?xml version="1.0" encoding="utf-8"?>
<!-- Generator: Adobe Illustrator 23.0.2, SVG Export Plug-In . SVG Version: 6.00 Build 0)  -->
<svg version="1.1" id="Calque_1" xmlns="http://www.w3.org/2000/svg" xmlns:xlink="http://www.w3.org/1999/xlink" x="0px" y="0px"
	 viewBox="0 0 200 200" style="enable-background:new 0 0 200 200;" xml:space="preserve">
<style type="text/css">
	.st0{opacity:0.15;fill:#2B2E33;}
	.st1{fill:#FFA400;}
	.st2{fill:#4891DC;}
	.st3{fill:#1C1C1C;}
	.st4{fill:none;}
	.st5{fill:#DEE2E5;}
	.st6{fill:#024B98;}
	.st7{fill:#3A3A3A;}
	.st8{fill:#C3C7CB;}
	.st9{fill:#ff0000;}
	.st10{fill:#FFFFFF;}
	.st11{fill:#F0F2F5;}
	.st12{fill:#004B98;}
	.st13{opacity:0.3;fill:#FFFFFF;}
	.st14{fill:#FE4A5D;}
	.st15{fill:none;stroke:#4891DC;stroke-width:1.5;stroke-linecap:round;stroke-miterlimit:10;}
	.st16{fill:none;stroke:#024B98;stroke-width:1.5;stroke-linecap:round;stroke-miterlimit:10;}
	.st17{fill:none;stroke:#4891DC;stroke-width:1.5;stroke-miterlimit:10;}
	.st18{fill:none;stroke:#024B98;stroke-width:1.5;stroke-miterlimit:10;}
	.st19{fill:#A8ADB1;}
	.st20{fill:#43474D;}
	.st21{fill:#00C18C;}
	.st22{fill:#0096AA;}
	.st23{fill:none;stroke:#FFFFFF;stroke-width:1.5;stroke-linecap:round;stroke-miterlimit:10;}
	.st24{fill:none;stroke:#A8ADB1;stroke-width:1.5;stroke-linecap:round;stroke-miterlimit:10;}
	.st25{fill:none;stroke:#A8ADB1;stroke-width:1.5;stroke-miterlimit:10;}
	.st26{fill:none;stroke:#FFFFFF;stroke-width:1.5;stroke-miterlimit:10;}
</style>
<g>
	<circle class="st0" cx="100" cy="100.2" r="56.1"/>
	<g>
		<path class="st14" d="M147.5,38.3l-0.5-0.2c-0.3-0.1-0.4-0.4-0.3-0.7l1.6-3.6c0.1-0.3,0.4-0.4,0.7-0.3l0.5,0.2
			c0.3,0.1,0.4,0.4,0.3,0.7l-1.6,3.6C148,38.3,147.7,38.4,147.5,38.3z"/>
		<path class="st14" d="M148.7,41.9L148.7,41.9c0.2-0.4,0.6-0.6,1-0.4l3.1,1.4c0.4,0.2,0.6,0.6,0.4,1v0c-0.2,0.4-0.6,0.6-1,0.4
			l-3.1-1.4C148.7,42.7,148.5,42.3,148.7,41.9z"/>
		<path class="st14" d="M144.7,43.2l0.5,0.2c0.3,0.1,0.4,0.4,0.3,0.7l-1.6,3.6c-0.1,0.3-0.4,0.4-0.7,0.3l-0.5-0.2
			c-0.3-0.1-0.4-0.4-0.3-0.7l1.6-3.6C144.2,43.2,144.5,43.1,144.7,43.2z"/>
		<path class="st14" d="M143.6,39.4l-0.2,0.5c-0.1,0.3-0.4,0.4-0.7,0.3l-3.6-1.6c-0.3-0.1-0.4-0.4-0.3-0.7l0.2-0.5
			c0.1-0.3,0.4-0.4,0.7-0.3l3.6,1.6C143.6,38.8,143.7,39.1,143.6,39.4z"/>
	</g>
	<g>
		<path class="st2" d="M32.3,105.1L27,99.8l-5,5c-0.3,0.3-0.8,0.3-1.1,0c-0.3-0.3-0.3-0.8,0-1.1l6.1-6.1l5.4,5.4l5.4-5.4l5.3,5.3
			l5-5l5.7,5.7c0.3,0.3,0.3,0.8,0,1.1c-0.3,0.3-0.8,0.3-1.1,0l-4.6-4.6l-5,5l-5.3-5.3L32.3,105.1z"/>
	</g>
	<g>
		<g>
			<path class="st5" d="M88.2,133.7h-0.7c-0.2,0-0.4-0.2-0.4-0.4s0.2-0.4,0.4-0.4h0.7c0.2,0,0.4,0.2,0.4,0.4S88.4,133.7,88.2,133.7z
				"/>
		</g>
		<g>
			<path class="st5" d="M133,133.7h-1.3c-0.2,0-0.4-0.2-0.4-0.4s0.2-0.4,0.4-0.4h1.2c0,0,0,0,0.1,0c0.2-0.1,0.4-0.1,0.5,0.1
				c0.1,0.2,0.1,0.4-0.1,0.5c-0.2,0.1-0.2,0.1-0.2,0.1C133.1,133.6,133.1,133.7,133,133.7z M129.5,133.7H128c-0.2,0-0.4-0.2-0.4-0.4
				s0.2-0.4,0.4-0.4h1.5c0.2,0,0.4,0.2,0.4,0.4S129.7,133.7,129.5,133.7z M125.7,133.7h-1.5c-0.2,0-0.4-0.2-0.4-0.4s0.2-0.4,0.4-0.4
				h1.5c0.2,0,0.4,0.2,0.4,0.4S125.9,133.7,125.7,133.7z M122,133.7h-1.5c-0.2,0-0.4-0.2-0.4-0.4s0.2-0.4,0.4-0.4h1.5
				c0.2,0,0.4,0.2,0.4,0.4S122.2,133.7,122,133.7z M118.2,133.7h-1.5c-0.2,0-0.4-0.2-0.4-0.4s0.2-0.4,0.4-0.4h1.5
				c0.2,0,0.4,0.2,0.4,0.4S118.4,133.7,118.2,133.7z M114.5,133.7H113c-0.2,0-0.4-0.2-0.4-0.4s0.2-0.4,0.4-0.4h1.5
				c0.2,0,0.4,0.2,0.4,0.4S114.7,133.7,114.5,133.7z M110.7,133.7h-1.5c-0.2,0-0.4-0.2-0.4-0.4s0.2-0.4,0.4-0.4h1.5
				c0.2,0,0.4,0.2,0.4,0.4S110.9,133.7,110.7,133.7z M107,133.7h-1.5c-0.2,0-0.4-0.2-0.4-0.4s0.2-0.4,0.4-0.4h1.5
				c0.2,0,0.4,0.2,0.4,0.4S107.2,133.7,107,133.7z M103.2,133.7h-1.5c-0.2,0-0.4-0.2-0.4-0.4s0.2-0.4,0.4-0.4h1.5
				c0.2,0,0.4,0.2,0.4,0.4S103.4,133.7,103.2,133.7z M99.5,133.7H98c-0.2,0-0.4-0.2-0.4-0.4s0.2-0.4,0.4-0.4h1.5
				c0.2,0,0.4,0.2,0.4,0.4S99.7,133.7,99.5,133.7z M95.7,133.7h-1.5c-0.2,0-0.4-0.2-0.4-0.4s0.2-0.4,0.4-0.4h1.5
				c0.2,0,0.4,0.2,0.4,0.4S95.9,133.7,95.7,133.7z M92,133.7h-1.5c-0.2,0-0.4-0.2-0.4-0.4s0.2-0.4,0.4-0.4H92c0.2,0,0.4,0.2,0.4,0.4
				S92.2,133.7,92,133.7z M134.7,131.9c-0.1,0-0.1,0-0.2-0.1c-0.2-0.1-0.2-0.3-0.1-0.5c0.2-0.4,0.5-0.8,0.6-1.3
				c0.1-0.2,0.3-0.3,0.5-0.2c0.2,0.1,0.3,0.3,0.2,0.5c-0.2,0.5-0.4,1-0.7,1.4C135,131.8,134.8,131.9,134.7,131.9z M136.1,128.4
				C136,128.4,136,128.4,136.1,128.4c-0.3-0.1-0.4-0.3-0.4-0.5c0.1-0.5,0.2-0.9,0.3-1.4c0-0.2,0.2-0.3,0.4-0.3
				c0.2,0,0.3,0.2,0.3,0.4c-0.1,0.5-0.2,1-0.3,1.5C136.4,128.3,136.2,128.4,136.1,128.4z M136.6,124.7
				C136.6,124.7,136.6,124.7,136.6,124.7c-0.2,0-0.4-0.2-0.4-0.4c0-0.5,0.1-1,0.1-1.5c0-0.2,0.2-0.4,0.4-0.4c0.2,0,0.4,0.2,0.4,0.4
				c0,0.5,0,1-0.1,1.5C136.9,124.6,136.8,124.7,136.6,124.7z M136.7,121C136.7,121,136.7,121,136.7,121c-0.2,0-0.4-0.2-0.4-0.4
				l0-1.5c0-0.2,0.2-0.4,0.4-0.4c0,0,0,0,0,0c0.2,0,0.4,0.2,0.4,0.4l0,1.5C137,120.8,136.9,121,136.7,121z M136.7,117.2
				C136.7,117.2,136.7,117.2,136.7,117.2c-0.2,0-0.4-0.2-0.4-0.4l0-1.5c0-0.2,0.2-0.4,0.4-0.4s0.4,0.2,0.4,0.4l0,1.5
				C137,117.1,136.9,117.2,136.7,117.2z M136.7,113.5c-0.2,0-0.4-0.2-0.4-0.4c0-0.5,0-1,0-1.5c0-0.2,0.2-0.4,0.4-0.4
				c0.2,0,0.4,0.2,0.4,0.4c0,0.5,0,1,0,1.5C137,113.3,136.9,113.5,136.7,113.5C136.7,113.5,136.7,113.5,136.7,113.5z M136.5,109.7
				c-0.2,0-0.4-0.2-0.4-0.3c0-0.5-0.1-1-0.1-1.5c0-0.2,0.1-0.4,0.3-0.4c0.2,0,0.4,0.1,0.4,0.3c0,0.5,0.1,1,0.1,1.5
				C136.9,109.6,136.8,109.7,136.5,109.7C136.6,109.7,136.5,109.7,136.5,109.7z M136.2,106c-0.2,0-0.3-0.1-0.4-0.3
				c-0.1-0.5-0.2-1-0.3-1.4c0-0.2,0.1-0.4,0.3-0.4c0.2,0,0.4,0.1,0.4,0.3c0.1,0.5,0.2,1,0.3,1.5C136.6,105.8,136.4,106,136.2,106
				C136.2,106,136.2,106,136.2,106z M135.1,102.4c-0.1,0-0.3-0.1-0.3-0.2c-0.2-0.5-0.5-0.8-0.8-1c-0.2-0.1-0.2-0.3-0.1-0.5
				s0.3-0.2,0.5-0.1c0.4,0.3,0.8,0.7,1.1,1.3c0.1,0.2,0,0.4-0.1,0.5C135.2,102.4,135.2,102.4,135.1,102.4z M132,101h-1.5
				c-0.2,0-0.4-0.2-0.4-0.4c0-0.2,0.2-0.4,0.4-0.4h1.5c0.2,0,0.4,0.2,0.4,0.4C132.4,100.8,132.2,101,132,101z M128.3,101h-1.5
				c-0.2,0-0.4-0.2-0.4-0.4c0-0.2,0.2-0.4,0.4-0.4h1.5c0.2,0,0.4,0.2,0.4,0.4C128.6,100.8,128.5,101,128.3,101z M124.5,101H123
				c-0.2,0-0.4-0.2-0.4-0.4c0-0.2,0.2-0.4,0.4-0.4h1.5c0.2,0,0.4,0.2,0.4,0.4C124.9,100.8,124.7,101,124.5,101z M120.8,101h-1.5
				c-0.2,0-0.4-0.2-0.4-0.4c0-0.2,0.2-0.4,0.4-0.4h1.5c0.2,0,0.4,0.2,0.4,0.4C121.1,100.8,121,101,120.8,101z M117,101h-1.5
				c-0.2,0-0.4-0.2-0.4-0.4c0-0.2,0.2-0.4,0.4-0.4h1.5c0.2,0,0.4,0.2,0.4,0.4C117.4,100.8,117.2,101,117,101z M113.3,101h-1.5
				c-0.2,0-0.4-0.2-0.4-0.4c0-0.2,0.2-0.4,0.4-0.4h1.5c0.2,0,0.4,0.2,0.4,0.4C113.7,100.8,113.5,101,113.3,101z M109.5,101H108
				c-0.2,0-0.4-0.2-0.4-0.4c0-0.2,0.2-0.4,0.4-0.4h1.5c0.2,0,0.4,0.2,0.4,0.4C109.9,100.8,109.7,101,109.5,101z"/>
		</g>
		<g>
			<path class="st5" d="M105.9,101h-0.7c-0.2,0-0.4-0.2-0.4-0.4c0-0.2,0.2-0.4,0.4-0.4h0.7c0.2,0,0.4,0.2,0.4,0.4
				C106.2,100.8,106.1,101,105.9,101z"/>
		</g>
	</g>
	<g>
		<g>
			<path class="st19" d="M131.2,81.2c-0.7-9.9-10.1-9.4-10.5-9.4l0-0.7c0.1,0,10.6-0.6,11.3,10L131.2,81.2z"/>
		</g>
		<g>
			<g>
				<polygon class="st19" points="128.2,79.1 128.7,78.5 131.5,80.9 133.7,77.9 134.2,78.3 131.6,81.9 				"/>
			</g>
		</g>
	</g>
	<g>
		<g>
			<path class="st19" d="M87.5,133.8c-0.1,0-0.2,0-0.3,0h-0.5c-0.1,0-0.1,0-0.2,0c-6.4,0-10.7,0-13.5-0.9c-3.1-0.9-4.4-2.8-4.4-6.4
				v-32c0-0.3,0.2-0.6,0.6-0.6s0.6,0.2,0.6,0.6v32c0,3.1,1,4.6,3.6,5.3c2.7,0.8,7.2,0.8,13.4,0.8h0.5c6.4,0,10.6,0,13.3-0.9
				c2.5-0.8,3.5-2.4,3.5-5.7V72.2c-0.3-0.6-2.5-3.9-11.5-3.9c-1.1,0-2.3,0-3.5,0c-7.6-0.1-16.2-0.1-18.6,2.3
				c-0.4,0.4-0.6,0.9-0.6,1.5v12c0,0.3-0.2,0.6-0.6,0.6s-0.6-0.2-0.6-0.6V72c0-0.9,0.3-1.6,1-2.3c2.8-2.7,11.2-2.7,19.4-2.6
				c1.2,0,2.4,0,3.5,0c10.6,0,12.5,4.5,12.6,4.6c0,0.1,0,0.1,0,0.2v54c0,3.8-1.3,5.8-4.3,6.8C98.1,133.8,93.9,133.8,87.5,133.8z"/>
		</g>
		<g>
			<path class="st10" d="M87,124.8c-0.8,0-1.5,0-2.3,0c-0.8,0-1.6,0-2.5,0c-5.4,0-8.7-0.8-10-2.4c-0.5-0.6-0.5-1.2-0.5-1.4V74.2
				c0-0.7,0.3-1.4,0.8-1.9c2.3-2.3,9.3-2.2,16-2.2c1,0,1.9,0,2.9,0c8.8,0,10.4,3.7,10.4,3.9c0,0.1,0,0.1,0,0.2v36.6
				c0,0.3-0.2,0.6-0.6,0.6s-0.6-0.2-0.6-0.6V74.4c-0.3-0.5-2.1-3.1-9.4-3.1c-0.9,0-1.9,0-2.9,0c-6.2,0-13.3-0.1-15.2,1.8
				c-0.3,0.3-0.5,0.7-0.5,1.1V121c0,0,0,0.1,0,0.1c0,0,0,0,0,0c0,0,0,0.3,0.3,0.6c0.6,0.7,2.6,1.9,9.1,1.9c0.8,0,1.7,0,2.5,0
				c6.8,0,12.7,0.1,15-2.3c0.8-0.8,1.1-1.8,1.1-3v-4.1c0-0.3,0.2-0.6,0.6-0.6s0.6,0.2,0.6,0.6v4.1c0,1.6-0.5,2.9-1.5,3.8
				C98.1,124.6,93.3,124.8,87,124.8z"/>
		</g>
		<g>
			<path class="st10" d="M87.4,131.3h-1.1c-0.9,0-1.7-0.7-1.7-1.7v-1.1c0-0.9,0.7-1.7,1.7-1.7h1.1c0.9,0,1.7,0.7,1.7,1.7v1.1
				C89.1,130.6,88.3,131.3,87.4,131.3z M86.3,128c-0.3,0-0.5,0.2-0.5,0.5v1.1c0,0.3,0.2,0.5,0.5,0.5h1.1c0.3,0,0.5-0.2,0.5-0.5v-1.1
				c0-0.3-0.2-0.5-0.5-0.5H86.3z"/>
		</g>
		<path class="st19" d="M69.1,91.6c-0.3,0-0.6-0.2-0.6-0.6v-3.2c0-0.3,0.2-0.6,0.6-0.6s0.6,0.2,0.6,0.6v3.2
			C69.7,91.4,69.4,91.6,69.1,91.6z"/>
	</g>
</g>
</svg>
