<?xml version="1.0" encoding="utf-8"?>
<!-- Generator: Adobe Illustrator 23.0.2, SVG Export Plug-In . SVG Version: 6.00 Build 0)  -->
<svg version="1.1" id="Calque_1" xmlns="http://www.w3.org/2000/svg" xmlns:xlink="http://www.w3.org/1999/xlink" x="0px" y="0px"
	 viewBox="0 0 200 200" style="enable-background:new 0 0 200 200;" xml:space="preserve">
<style type="text/css">
	.st0{opacity:0.15;fill:#2B2E33;}
	.st1{fill:#FFA400;}
	.st2{fill:#4891DC;}
	.st3{fill:#1C1C1C;}
	.st4{fill:none;}
	.st5{fill:#DEE2E5;}
	.st6{fill:#024B98;}
	.st7{fill:#3A3A3A;}
	.st8{fill:#C3C7CB;}
	.st9{fill:#ff0000;}
	.st10{fill:#FFFFFF;}
	.st11{fill:#F0F2F5;}
	.st12{fill:#004B98;}
	.st13{opacity:0.3;fill:#FFFFFF;}
	.st14{fill:#FE4A5D;}
	.st15{fill:none;stroke:#4891DC;stroke-width:1.5;stroke-linecap:round;stroke-miterlimit:10;}
	.st16{fill:none;stroke:#024B98;stroke-width:1.5;stroke-linecap:round;stroke-miterlimit:10;}
	.st17{fill:none;stroke:#4891DC;stroke-width:1.5;stroke-miterlimit:10;}
	.st18{fill:none;stroke:#024B98;stroke-width:1.5;stroke-miterlimit:10;}
	.st19{fill:#A8ADB1;}
	.st20{fill:#43474D;}
	.st21{fill:#00C18C;}
	.st22{fill:#0096AA;}
	.st23{fill:none;stroke:#FFFFFF;stroke-width:1.5;stroke-linecap:round;stroke-miterlimit:10;}
	.st24{fill:none;stroke:#A8ADB1;stroke-width:1.5;stroke-linecap:round;stroke-miterlimit:10;}
	.st25{fill:none;stroke:#A8ADB1;stroke-width:1.5;stroke-miterlimit:10;}
	.st26{fill:none;stroke:#FFFFFF;stroke-width:1.5;stroke-miterlimit:10;}
</style>
<g>
	<circle class="st11" cx="100" cy="100" r="56.1"/>
	<g>
		<path class="st1" d="M107,52.5l-1.1-0.1c-0.3,0-0.5-0.3-0.5-0.6l0.4-5.8c0-0.3,0.3-0.5,0.6-0.5l1.1,0.1c0.3,0,0.5,0.3,0.5,0.6
			l-0.4,5.8C107.6,52.3,107.3,52.5,107,52.5z"/>
		<path class="st1" d="M137.1,53.3L137.1,53.3c-0.3-0.5-0.1-1.2,0.5-1.5l4.1-2.2c0.5-0.3,1.2-0.1,1.5,0.5v0c0.3,0.5,0.1,1.2-0.5,1.5
			l-4.1,2.2C138,54,137.4,53.8,137.1,53.3z"/>
		<path class="st1" d="M142.1,106.1L142.1,106.1c-0.1-0.6,0.3-1.1,0.9-1.2l4.6-0.8c0.6-0.1,1.1,0.3,1.2,0.9v0
			c0.1,0.6-0.3,1.1-0.9,1.2l-4.6,0.8C142.7,107.1,142.2,106.7,142.1,106.1z"/>
		<path class="st1" d="M129.6,66.8L129.6,66.8c-0.1-0.6,0.3-1.1,0.9-1.2l4.6-0.8c0.6-0.1,1.1,0.3,1.2,0.9v0c0.1,0.6-0.3,1.1-0.9,1.2
			l-4.6,0.8C130.2,67.8,129.7,67.4,129.6,66.8z"/>
		<path class="st1" d="M119.6,80.9L119.6,80.9c-0.3-0.5,0-1.2,0.5-1.4l4.2-2c0.5-0.3,1.2,0,1.4,0.5l0,0c0.3,0.5,0,1.2-0.5,1.4
			l-4.2,2C120.5,81.7,119.9,81.5,119.6,80.9z"/>
		<g>
			<path class="st9" d="M147.7,92.8l-8.2-2.8l-4,7c-0.2,0.4-0.8,0.7-1.3,0.5c-0.5-0.2-0.7-0.7-0.4-1.1l4.9-8.6l8.2,2.8l4.3-7.6
				l8.1,2.8l4-7l8.7,3c0.5,0.2,0.7,0.7,0.4,1.1c-0.2,0.4-0.8,0.7-1.3,0.5l-7-2.4l-4,7l-8.1-2.8L147.7,92.8z"/>
		</g>
		<g>
			<path class="st9" d="M121.2,65.4l-8,2.5l1.3,7.7c0.1,0.5-0.2,1-0.7,1.1c-0.5,0.1-0.9-0.1-1-0.6l-1.6-9.4l8-2.5l-1.5-8.3l7.9-2.5
				l-1.3-7.7l8.5-2.7c0.5-0.1,0.9,0.1,1,0.6c0.1,0.5-0.2,1-0.7,1.1l-6.9,2.2l1.3,7.7l-7.9,2.5L121.2,65.4z"/>
		</g>
		<g>
			<path class="st5" d="M115.1,111.4L87.5,83.8l-29.4,62.1c0,0.1-1.6,3.9,0.5,6c2.1,2.1,5.9,0.6,6,0.5l62.1-29.4l-7.6-7.6"/>
			<path class="st13" d="M103.7,99.9c-8.8,11-13.5,25.1-12.5,40l35.6-16.9C117.5,113.8,120.6,116.9,103.7,99.9z"/>
			<circle class="st14" cx="100.7" cy="61" r="3.4"/>
			<circle class="st14" cx="150.6" cy="68.6" r="3.4"/>
			<path class="st2" d="M126.8,123l7.3-3.4c-0.2-0.2-42.7-42.7-43.1-43.1l-3.4,7.2"/>
			<path class="st13" d="M103.7,99.9l23.1,23.1l7.3-3.4c-0.7-0.7-24.8-24.8-25.3-25.3C106.9,96.1,105.2,98,103.7,99.9z"/>
			<path class="st2" d="M83,93.4l-8.7,18.3c3.7,1.6,8.2,0.9,11.2-2.1C90.4,104.8,89.1,96.6,83,93.4z"/>
			<path class="st2" d="M83,93.4c-4.3,9.1-8.4,17.8-8.7,18.3c2.4,1,5.1,1.1,7.5,0.2l6.1-12.9C87.1,96.6,85.3,94.6,83,93.4z"/>
			<path class="st2" d="M99,128.6L99,128.6c-3.2-3.5-7.1-3.3-7.1-3.3l0,0c-9.4-0.4-14.3,11.3-7.2,17.7l16.9-8
				C101.5,132.6,100.6,130.3,99,128.6z"/>
			<path class="st2" d="M68.7,123.7l-4,8.4c2,2.2,5.4,2.3,7.4,0.3C75.2,129.2,73.1,123.9,68.7,123.7z"/>
			<circle class="st2" cx="99.2" cy="111.4" r="4.3"/>
			<g>
				<circle class="st9" cx="137.6" cy="79.9" r="2.4"/>
				<circle class="st9" cx="115.7" cy="43" r="2.4"/>
				<circle class="st9" cx="166.2" cy="98.4" r="2.4"/>
			</g>
			<path class="st6" d="M138.1,113.6c-3.9-3.9-37.1-37.1-41.1-41.1c-1.5-1.5-3.8-1.5-5.3,0c-1.5,1.5-1.5,3.8,0,5.3l41.1,41.1
				c1.5,1.5,3.8,1.5,5.3,0C139.6,117.5,139.6,115.1,138.1,113.6z"/>
			<path class="st13" d="M132.8,118.9c1.5,1.5,3.8,1.5,5.3,0c1.5-1.5,1.5-3.8,0-5.3l-23.9-23.9c-2,1.5-3.9,3.1-5.7,4.9L132.8,118.9z
				"/>
		</g>
	</g>
</g>
</svg>
